<?xml version="1.0" encoding="UTF-8"?>
<svg version="1.1" xmlns="http://www.w3.org/2000/svg" width="1707" height="1991">
<path d="M0,0 L1701,0 L1701,27 L1702,27 L1702,100 L1703,100 L1703,201 L1704,201 L1704,641 L1703,641 L1703,745 L1702,745 L1702,821 L1701,821 L1701,884 L1700,884 L1700,928 L1699,928 L1699,962 L1698,962 L1698,989 L1697,989 L1697,1010 L1696,1010 L1696,1029 L1695,1029 L1695,1046 L1694,1046 L1694,1061 L1693,1061 L1693,1075 L1692,1075 L1692,1088 L1691,1088 L1691,1099 L1690,1099 L1690,1110 L1689,1110 L1689,1120 L1688,1120 L1688,1130 L1687,1130 L1687,1138 L1686,1138 L1686,1147 L1685,1147 L1685,1155 L1684,1155 L1684,1163 L1683,1163 L1683,1170 L1682,1170 L1682,1178 L1681,1178 L1681,1184 L1680,1184 L1680,1191 L1679,1191 L1679,1197 L1678,1197 L1678,1203 L1677,1203 L1677,1209 L1676,1209 L1676,1215 L1675,1215 L1675,1221 L1674,1221 L1674,1226 L1673,1226 L1673,1231 L1672,1231 L1672,1237 L1671,1237 L1671,1241 L1670,1241 L1670,1246 L1669,1246 L1669,1251 L1668,1251 L1668,1256 L1667,1256 L1667,1260 L1666,1260 L1666,1264 L1665,1264 L1665,1269 L1664,1269 L1664,1273 L1663,1273 L1663,1277 L1662,1277 L1662,1281 L1661,1281 L1661,1285 L1660,1285 L1660,1289 L1659,1289 L1659,1293 L1658,1293 L1658,1296 L1657,1296 L1657,1300 L1656,1300 L1656,1303 L1655,1303 L1655,1307 L1654,1307 L1654,1311 L1653,1311 L1653,1314 L1652,1314 L1652,1317 L1651,1317 L1651,1320 L1650,1320 L1650,1324 L1649,1324 L1649,1327 L1648,1327 L1648,1330 L1647,1330 L1647,1333 L1646,1333 L1646,1336 L1645,1336 L1645,1339 L1644,1339 L1644,1342 L1643,1342 L1643,1345 L1642,1345 L1642,1348 L1641,1348 L1641,1351 L1640,1351 L1640,1353 L1639,1353 L1639,1356 L1638,1356 L1638,1359 L1637,1359 L1637,1362 L1636,1362 L1636,1364 L1635,1364 L1635,1367 L1634,1367 L1634,1370 L1633,1370 L1633,1372 L1632,1372 L1632,1374 L1631,1374 L1631,1377 L1630,1377 L1630,1379 L1629,1379 L1629,1382 L1628,1382 L1628,1384 L1627,1384 L1627,1387 L1626,1387 L1626,1389 L1625,1389 L1625,1391 L1624,1391 L1624,1393 L1623,1393 L1623,1396 L1622,1396 L1622,1398 L1621,1398 L1621,1400 L1620,1400 L1620,1403 L1619,1403 L1619,1405 L1618,1405 L1618,1407 L1617,1407 L1617,1409 L1616,1409 L1616,1411 L1615,1411 L1615,1413 L1614,1413 L1614,1415 L1613,1415 L1613,1417 L1612,1417 L1612,1419 L1611,1419 L1611,1421 L1610,1421 L1610,1423 L1609,1423 L1609,1425 L1608,1425 L1608,1427 L1607,1427 L1607,1429 L1606,1429 L1606,1431 L1605,1431 L1605,1433 L1604,1433 L1604,1435 L1603,1435 L1603,1437 L1602,1437 L1602,1439 L1601,1439 L1601,1440 L1600,1440 L1600,1442 L1599,1442 L1599,1444 L1598,1444 L1598,1446 L1597,1446 L1597,1448 L1596,1448 L1596,1449 L1595,1449 L1595,1451 L1594,1451 L1594,1453 L1593,1453 L1593,1455 L1592,1455 L1592,1456 L1591,1456 L1591,1458 L1590,1458 L1590,1460 L1589,1460 L1589,1461 L1588,1461 L1588,1463 L1587,1463 L1587,1464 L1586,1464 L1586,1466 L1585,1466 L1585,1468 L1584,1468 L1584,1469 L1583,1469 L1583,1471 L1582,1471 L1582,1472 L1581,1472 L1581,1474 L1580,1474 L1580,1476 L1579,1476 L1579,1477 L1578,1477 L1578,1479 L1577,1479 L1577,1480 L1576,1480 L1576,1482 L1575,1482 L1575,1483 L1574,1483 L1574,1485 L1573,1485 L1573,1486 L1572,1486 L1572,1488 L1571,1488 L1571,1489 L1570,1489 L1570,1490 L1569,1490 L1569,1492 L1568,1492 L1568,1493 L1567,1493 L1567,1495 L1566,1495 L1566,1496 L1565,1496 L1565,1498 L1564,1498 L1564,1499 L1563,1499 L1563,1500 L1562,1500 L1562,1502 L1561,1502 L1561,1503 L1560,1503 L1560,1504 L1559,1504 L1559,1506 L1558,1506 L1558,1507 L1557,1507 L1557,1508 L1556,1508 L1556,1510 L1555,1510 L1555,1511 L1554,1511 L1554,1513 L1553,1513 L1553,1514 L1552,1514 L1552,1515 L1551,1515 L1551,1516 L1550,1516 L1550,1518 L1549,1518 L1549,1519 L1548,1519 L1548,1520 L1547,1520 L1547,1522 L1546,1522 L1546,1523 L1545,1523 L1545,1524 L1544,1524 L1544,1525 L1543,1525 L1543,1527 L1542,1527 L1542,1528 L1541,1528 L1541,1529 L1540,1529 L1540,1530 L1539,1530 L1539,1532 L1538,1532 L1538,1533 L1537,1533 L1537,1534 L1536,1534 L1536,1535 L1535,1535 L1535,1537 L1534,1537 L1534,1538 L1533,1538 L1533,1539 L1532,1539 L1532,1540 L1531,1540 L1531,1542 L1530,1542 L1530,1543 L1529,1543 L1529,1544 L1528,1544 L1528,1545 L1527,1545 L1527,1546 L1526,1546 L1526,1548 L1525,1548 L1525,1549 L1524,1549 L1524,1550 L1523,1550 L1523,1551 L1522,1551 L1522,1552 L1521,1552 L1521,1553 L1520,1553 L1520,1555 L1519,1555 L1519,1556 L1518,1556 L1518,1557 L1517,1557 L1517,1558 L1516,1558 L1516,1559 L1515,1559 L1515,1560 L1514,1560 L1514,1561 L1513,1561 L1513,1563 L1512,1563 L1512,1564 L1511,1564 L1511,1565 L1510,1565 L1510,1566 L1509,1566 L1509,1567 L1508,1567 L1508,1568 L1507,1568 L1507,1569 L1506,1569 L1506,1570 L1505,1570 L1505,1572 L1504,1572 L1504,1573 L1503,1573 L1503,1574 L1502,1574 L1502,1575 L1501,1575 L1501,1576 L1500,1576 L1500,1577 L1499,1577 L1499,1578 L1498,1578 L1498,1579 L1497,1579 L1497,1580 L1496,1580 L1496,1581 L1495,1581 L1495,1582 L1494,1582 L1494,1584 L1493,1584 L1493,1585 L1492,1585 L1492,1586 L1491,1586 L1491,1587 L1490,1587 L1490,1588 L1489,1588 L1489,1589 L1488,1589 L1488,1590 L1487,1590 L1487,1591 L1486,1591 L1486,1592 L1485,1592 L1485,1593 L1484,1593 L1484,1594 L1483,1594 L1483,1595 L1482,1595 L1482,1596 L1481,1596 L1481,1597 L1480,1597 L1480,1598 L1479,1598 L1479,1599 L1478,1599 L1478,1600 L1477,1600 L1477,1601 L1476,1601 L1476,1602 L1475,1602 L1475,1603 L1474,1603 L1474,1604 L1473,1604 L1473,1605 L1472,1605 L1472,1606 L1471,1606 L1471,1607 L1470,1607 L1470,1608 L1469,1608 L1469,1609 L1468,1609 L1468,1610 L1467,1610 L1467,1611 L1466,1611 L1466,1612 L1465,1612 L1465,1613 L1464,1613 L1464,1614 L1463,1614 L1463,1615 L1462,1615 L1462,1616 L1461,1616 L1461,1617 L1460,1617 L1460,1618 L1459,1618 L1459,1619 L1458,1619 L1458,1620 L1457,1620 L1457,1621 L1456,1621 L1456,1622 L1455,1622 L1455,1623 L1454,1623 L1454,1624 L1453,1624 L1453,1625 L1452,1625 L1452,1626 L1451,1626 L1451,1627 L1450,1627 L1450,1628 L1449,1628 L1449,1629 L1448,1629 L1448,1630 L1447,1630 L1447,1631 L1445,1631 L1445,1632 L1444,1632 L1444,1633 L1443,1633 L1443,1634 L1442,1634 L1442,1635 L1441,1635 L1441,1636 L1440,1636 L1440,1637 L1439,1637 L1439,1638 L1438,1638 L1438,1639 L1437,1639 L1437,1640 L1436,1640 L1436,1641 L1435,1641 L1435,1642 L1434,1642 L1434,1643 L1432,1643 L1432,1644 L1431,1644 L1431,1645 L1430,1645 L1430,1646 L1429,1646 L1429,1647 L1428,1647 L1428,1648 L1427,1648 L1427,1649 L1426,1649 L1426,1650 L1425,1650 L1425,1651 L1423,1651 L1423,1652 L1422,1652 L1422,1653 L1421,1653 L1421,1654 L1420,1654 L1420,1655 L1419,1655 L1419,1656 L1418,1656 L1418,1657 L1417,1657 L1417,1658 L1416,1658 L1416,1659 L1414,1659 L1414,1660 L1413,1660 L1413,1661 L1412,1661 L1412,1662 L1411,1662 L1411,1663 L1410,1663 L1410,1664 L1409,1664 L1409,1665 L1407,1665 L1407,1666 L1406,1666 L1406,1667 L1405,1667 L1405,1668 L1404,1668 L1404,1669 L1403,1669 L1403,1670 L1401,1670 L1401,1671 L1400,1671 L1400,1672 L1399,1672 L1399,1673 L1398,1673 L1398,1674 L1397,1674 L1397,1675 L1396,1675 L1396,1676 L1394,1676 L1394,1677 L1393,1677 L1393,1678 L1392,1678 L1392,1679 L1391,1679 L1391,1680 L1389,1680 L1389,1681 L1388,1681 L1388,1682 L1387,1682 L1387,1683 L1386,1683 L1386,1684 L1385,1684 L1385,1685 L1383,1685 L1383,1686 L1382,1686 L1382,1687 L1381,1687 L1381,1688 L1380,1688 L1380,1689 L1378,1689 L1378,1690 L1377,1690 L1377,1691 L1376,1691 L1376,1692 L1375,1692 L1375,1693 L1373,1693 L1373,1694 L1372,1694 L1372,1695 L1371,1695 L1371,1696 L1370,1696 L1370,1697 L1368,1697 L1368,1698 L1367,1698 L1367,1699 L1366,1699 L1366,1700 L1364,1700 L1364,1701 L1363,1701 L1363,1702 L1362,1702 L1362,1703 L1361,1703 L1361,1704 L1359,1704 L1359,1705 L1358,1705 L1358,1706 L1357,1706 L1357,1707 L1355,1707 L1355,1708 L1354,1708 L1354,1709 L1353,1709 L1353,1710 L1352,1710 L1352,1711 L1350,1711 L1350,1712 L1349,1712 L1349,1713 L1348,1713 L1348,1714 L1346,1714 L1346,1715 L1345,1715 L1345,1716 L1344,1716 L1344,1717 L1342,1717 L1342,1718 L1341,1718 L1341,1719 L1340,1719 L1340,1720 L1338,1720 L1338,1721 L1337,1721 L1337,1722 L1336,1722 L1336,1723 L1334,1723 L1334,1724 L1333,1724 L1333,1725 L1331,1725 L1331,1726 L1330,1726 L1330,1727 L1329,1727 L1329,1728 L1327,1728 L1327,1729 L1326,1729 L1326,1730 L1325,1730 L1325,1731 L1323,1731 L1323,1732 L1322,1732 L1322,1733 L1320,1733 L1320,1734 L1319,1734 L1319,1735 L1318,1735 L1318,1736 L1316,1736 L1316,1737 L1315,1737 L1315,1738 L1314,1738 L1314,1739 L1312,1739 L1312,1740 L1311,1740 L1311,1741 L1309,1741 L1309,1742 L1308,1742 L1308,1743 L1306,1743 L1306,1744 L1305,1744 L1305,1745 L1304,1745 L1304,1746 L1302,1746 L1302,1747 L1301,1747 L1301,1748 L1299,1748 L1299,1749 L1298,1749 L1298,1750 L1296,1750 L1296,1751 L1295,1751 L1295,1752 L1294,1752 L1294,1753 L1292,1753 L1292,1754 L1291,1754 L1291,1755 L1289,1755 L1289,1756 L1288,1756 L1288,1757 L1286,1757 L1286,1758 L1285,1758 L1285,1759 L1283,1759 L1283,1760 L1282,1760 L1282,1761 L1280,1761 L1280,1762 L1279,1762 L1279,1763 L1277,1763 L1277,1764 L1276,1764 L1276,1765 L1274,1765 L1274,1766 L1273,1766 L1273,1767 L1271,1767 L1271,1768 L1270,1768 L1270,1769 L1268,1769 L1268,1770 L1267,1770 L1267,1771 L1265,1771 L1265,1772 L1264,1772 L1264,1773 L1262,1773 L1262,1774 L1261,1774 L1261,1775 L1259,1775 L1259,1776 L1258,1776 L1258,1777 L1256,1777 L1256,1778 L1255,1778 L1255,1779 L1253,1779 L1253,1780 L1251,1780 L1251,1781 L1250,1781 L1250,1782 L1248,1782 L1248,1783 L1247,1783 L1247,1784 L1245,1784 L1245,1785 L1244,1785 L1244,1786 L1242,1786 L1242,1787 L1241,1787 L1241,1788 L1239,1788 L1239,1789 L1237,1789 L1237,1790 L1236,1790 L1236,1791 L1234,1791 L1234,1792 L1233,1792 L1233,1793 L1231,1793 L1231,1794 L1229,1794 L1229,1795 L1228,1795 L1228,1796 L1226,1796 L1226,1797 L1225,1797 L1225,1798 L1223,1798 L1223,1799 L1221,1799 L1221,1800 L1220,1800 L1220,1801 L1218,1801 L1218,1802 L1217,1802 L1217,1803 L1215,1803 L1215,1804 L1213,1804 L1213,1805 L1212,1805 L1212,1806 L1210,1806 L1210,1807 L1208,1807 L1208,1808 L1207,1808 L1207,1809 L1205,1809 L1205,1810 L1203,1810 L1203,1811 L1202,1811 L1202,1812 L1200,1812 L1200,1813 L1199,1813 L1199,1814 L1197,1814 L1197,1815 L1195,1815 L1195,1816 L1193,1816 L1193,1817 L1192,1817 L1192,1818 L1190,1818 L1190,1819 L1188,1819 L1188,1820 L1187,1820 L1187,1821 L1185,1821 L1185,1822 L1183,1822 L1183,1823 L1182,1823 L1182,1824 L1180,1824 L1180,1825 L1178,1825 L1178,1826 L1177,1826 L1177,1827 L1175,1827 L1175,1828 L1173,1828 L1173,1829 L1171,1829 L1171,1830 L1170,1830 L1170,1831 L1168,1831 L1168,1832 L1166,1832 L1166,1833 L1165,1833 L1165,1834 L1163,1834 L1163,1835 L1161,1835 L1161,1836 L1159,1836 L1159,1837 L1158,1837 L1158,1838 L1156,1838 L1156,1839 L1154,1839 L1154,1840 L1152,1840 L1152,1841 L1151,1841 L1151,1842 L1149,1842 L1149,1843 L1147,1843 L1147,1844 L1145,1844 L1145,1845 L1144,1845 L1144,1846 L1142,1846 L1142,1847 L1140,1847 L1140,1848 L1138,1848 L1138,1849 L1136,1849 L1136,1850 L1135,1850 L1135,1851 L1133,1851 L1133,1852 L1131,1852 L1131,1853 L1129,1853 L1129,1854 L1127,1854 L1127,1855 L1126,1855 L1126,1856 L1124,1856 L1124,1857 L1122,1857 L1122,1858 L1120,1858 L1120,1859 L1118,1859 L1118,1860 L1117,1860 L1117,1861 L1115,1861 L1115,1862 L1113,1862 L1113,1863 L1111,1863 L1111,1864 L1109,1864 L1109,1865 L1107,1865 L1107,1866 L1106,1866 L1106,1867 L1104,1867 L1104,1868 L1102,1868 L1102,1869 L1100,1869 L1100,1870 L1098,1870 L1098,1871 L1096,1871 L1096,1872 L1094,1872 L1094,1873 L1093,1873 L1093,1874 L1091,1874 L1091,1875 L1089,1875 L1089,1876 L1087,1876 L1087,1877 L1085,1877 L1085,1878 L1083,1878 L1083,1879 L1081,1879 L1081,1880 L1079,1880 L1079,1881 L1078,1881 L1078,1882 L1076,1882 L1076,1883 L1074,1883 L1074,1884 L1072,1884 L1072,1885 L1070,1885 L1070,1886 L1068,1886 L1068,1887 L1066,1887 L1066,1888 L1064,1888 L1064,1889 L1062,1889 L1062,1890 L1060,1890 L1060,1891 L1058,1891 L1058,1892 L1056,1892 L1056,1893 L1055,1893 L1055,1894 L1053,1894 L1053,1895 L1051,1895 L1051,1896 L1049,1896 L1049,1897 L1047,1897 L1047,1898 L1045,1898 L1045,1899 L1043,1899 L1043,1900 L1041,1900 L1041,1901 L1039,1901 L1039,1902 L1037,1902 L1037,1903 L1035,1903 L1035,1904 L1033,1904 L1033,1905 L1031,1905 L1031,1906 L1029,1906 L1029,1907 L1027,1907 L1027,1908 L1025,1908 L1025,1909 L1023,1909 L1023,1910 L1021,1910 L1021,1911 L1019,1911 L1019,1912 L1017,1912 L1017,1913 L1015,1913 L1015,1914 L1013,1914 L1013,1915 L1011,1915 L1011,1916 L1009,1916 L1009,1917 L1007,1917 L1007,1918 L1005,1918 L1005,1919 L1003,1919 L1003,1920 L1001,1920 L1001,1921 L999,1921 L999,1922 L997,1922 L997,1923 L995,1923 L995,1924 L993,1924 L993,1925 L991,1925 L991,1926 L989,1926 L989,1927 L987,1927 L987,1928 L985,1928 L985,1929 L983,1929 L983,1930 L981,1930 L981,1931 L979,1931 L979,1932 L977,1932 L977,1933 L975,1933 L975,1934 L973,1934 L973,1935 L971,1935 L971,1936 L968,1936 L968,1937 L966,1937 L966,1938 L964,1938 L964,1939 L962,1939 L962,1940 L960,1940 L960,1941 L958,1941 L958,1942 L956,1942 L956,1943 L954,1943 L954,1944 L952,1944 L952,1945 L950,1945 L950,1946 L948,1946 L948,1947 L945,1947 L945,1948 L943,1948 L943,1949 L941,1949 L941,1950 L939,1950 L939,1951 L937,1951 L937,1952 L935,1952 L935,1953 L933,1953 L933,1954 L931,1954 L931,1955 L929,1955 L929,1956 L926,1956 L926,1957 L924,1957 L924,1958 L922,1958 L922,1959 L920,1959 L920,1960 L918,1960 L918,1961 L916,1961 L916,1962 L914,1962 L914,1963 L912,1963 L912,1964 L909,1964 L909,1965 L907,1965 L907,1966 L905,1966 L905,1967 L903,1967 L903,1968 L901,1968 L901,1969 L899,1969 L899,1970 L896,1970 L896,1971 L894,1971 L894,1972 L892,1972 L892,1973 L890,1973 L890,1974 L888,1974 L888,1975 L886,1975 L886,1976 L883,1976 L883,1977 L881,1977 L881,1978 L879,1978 L879,1979 L877,1979 L877,1980 L875,1980 L875,1981 L872,1981 L872,1982 L870,1982 L870,1983 L868,1983 L868,1984 L866,1984 L866,1985 L864,1985 L864,1986 L861,1986 L861,1987 L859,1987 L859,1988 L857,1988 L857,1989 L855,1989 L855,1990 L853,1990 L853,1991 L849,1991 L849,1990 L847,1990 L847,1989 L845,1989 L845,1988 L842,1988 L842,1987 L840,1987 L840,1986 L838,1986 L838,1985 L836,1985 L836,1984 L834,1984 L834,1983 L831,1983 L831,1982 L829,1982 L829,1981 L827,1981 L827,1980 L825,1980 L825,1979 L823,1979 L823,1978 L820,1978 L820,1977 L818,1977 L818,1976 L816,1976 L816,1975 L814,1975 L814,1974 L812,1974 L812,1973 L809,1973 L809,1972 L807,1972 L807,1971 L805,1971 L805,1970 L803,1970 L803,1969 L801,1969 L801,1968 L799,1968 L799,1967 L796,1967 L796,1966 L794,1966 L794,1965 L792,1965 L792,1964 L790,1964 L790,1963 L788,1963 L788,1962 L786,1962 L786,1961 L784,1961 L784,1960 L781,1960 L781,1959 L779,1959 L779,1958 L777,1958 L777,1957 L775,1957 L775,1956 L773,1956 L773,1955 L771,1955 L771,1954 L769,1954 L769,1953 L767,1953 L767,1952 L764,1952 L764,1951 L762,1951 L762,1950 L760,1950 L760,1949 L758,1949 L758,1948 L756,1948 L756,1947 L754,1947 L754,1946 L752,1946 L752,1945 L750,1945 L750,1944 L748,1944 L748,1943 L746,1943 L746,1942 L743,1942 L743,1941 L741,1941 L741,1940 L739,1940 L739,1939 L737,1939 L737,1938 L735,1938 L735,1937 L733,1937 L733,1936 L731,1936 L731,1935 L729,1935 L729,1934 L727,1934 L727,1933 L725,1933 L725,1932 L723,1932 L723,1931 L721,1931 L721,1930 L719,1930 L719,1929 L717,1929 L717,1928 L715,1928 L715,1927 L713,1927 L713,1926 L710,1926 L710,1925 L708,1925 L708,1924 L706,1924 L706,1923 L704,1923 L704,1922 L702,1922 L702,1921 L700,1921 L700,1920 L698,1920 L698,1919 L696,1919 L696,1918 L694,1918 L694,1917 L692,1917 L692,1916 L690,1916 L690,1915 L688,1915 L688,1914 L686,1914 L686,1913 L684,1913 L684,1912 L682,1912 L682,1911 L680,1911 L680,1910 L678,1910 L678,1909 L676,1909 L676,1908 L674,1908 L674,1907 L672,1907 L672,1906 L670,1906 L670,1905 L668,1905 L668,1904 L666,1904 L666,1903 L665,1903 L665,1902 L663,1902 L663,1901 L661,1901 L661,1900 L659,1900 L659,1899 L657,1899 L657,1898 L655,1898 L655,1897 L653,1897 L653,1896 L651,1896 L651,1895 L649,1895 L649,1894 L647,1894 L647,1893 L645,1893 L645,1892 L643,1892 L643,1891 L641,1891 L641,1890 L639,1890 L639,1889 L637,1889 L637,1888 L635,1888 L635,1887 L634,1887 L634,1886 L632,1886 L632,1885 L630,1885 L630,1884 L628,1884 L628,1883 L626,1883 L626,1882 L624,1882 L624,1881 L622,1881 L622,1880 L620,1880 L620,1879 L618,1879 L618,1878 L616,1878 L616,1877 L615,1877 L615,1876 L613,1876 L613,1875 L611,1875 L611,1874 L609,1874 L609,1873 L607,1873 L607,1872 L605,1872 L605,1871 L603,1871 L603,1870 L601,1870 L601,1869 L600,1869 L600,1868 L598,1868 L598,1867 L596,1867 L596,1866 L594,1866 L594,1865 L592,1865 L592,1864 L590,1864 L590,1863 L589,1863 L589,1862 L587,1862 L587,1861 L585,1861 L585,1860 L583,1860 L583,1859 L581,1859 L581,1858 L579,1858 L579,1857 L578,1857 L578,1856 L576,1856 L576,1855 L574,1855 L574,1854 L572,1854 L572,1853 L570,1853 L570,1852 L569,1852 L569,1851 L567,1851 L567,1850 L565,1850 L565,1849 L563,1849 L563,1848 L562,1848 L562,1847 L560,1847 L560,1846 L558,1846 L558,1845 L556,1845 L556,1844 L554,1844 L554,1843 L553,1843 L553,1842 L551,1842 L551,1841 L549,1841 L549,1840 L547,1840 L547,1839 L546,1839 L546,1838 L544,1838 L544,1837 L542,1837 L542,1836 L540,1836 L540,1835 L539,1835 L539,1834 L537,1834 L537,1833 L535,1833 L535,1832 L534,1832 L534,1831 L532,1831 L532,1830 L530,1830 L530,1829 L528,1829 L528,1828 L527,1828 L527,1827 L525,1827 L525,1826 L523,1826 L523,1825 L521,1825 L521,1824 L520,1824 L520,1823 L518,1823 L518,1822 L516,1822 L516,1821 L515,1821 L515,1820 L513,1820 L513,1819 L511,1819 L511,1818 L510,1818 L510,1817 L508,1817 L508,1816 L506,1816 L506,1815 L505,1815 L505,1814 L503,1814 L503,1813 L501,1813 L501,1812 L500,1812 L500,1811 L498,1811 L498,1810 L496,1810 L496,1809 L495,1809 L495,1808 L493,1808 L493,1807 L491,1807 L491,1806 L490,1806 L490,1805 L488,1805 L488,1804 L487,1804 L487,1803 L485,1803 L485,1802 L483,1802 L483,1801 L482,1801 L482,1800 L480,1800 L480,1799 L478,1799 L478,1798 L477,1798 L477,1797 L475,1797 L475,1796 L474,1796 L474,1795 L472,1795 L472,1794 L470,1794 L470,1793 L469,1793 L469,1792 L467,1792 L467,1791 L466,1791 L466,1790 L464,1790 L464,1789 L463,1789 L463,1788 L461,1788 L461,1787 L459,1787 L459,1786 L458,1786 L458,1785 L456,1785 L456,1784 L455,1784 L455,1783 L453,1783 L453,1782 L452,1782 L452,1781 L450,1781 L450,1780 L448,1780 L448,1779 L447,1779 L447,1778 L445,1778 L445,1777 L444,1777 L444,1776 L442,1776 L442,1775 L441,1775 L441,1774 L439,1774 L439,1773 L438,1773 L438,1772 L436,1772 L436,1771 L435,1771 L435,1770 L433,1770 L433,1769 L432,1769 L432,1768 L430,1768 L430,1767 L429,1767 L429,1766 L427,1766 L427,1765 L426,1765 L426,1764 L424,1764 L424,1763 L423,1763 L423,1762 L421,1762 L421,1761 L420,1761 L420,1760 L418,1760 L418,1759 L417,1759 L417,1758 L415,1758 L415,1757 L414,1757 L414,1756 L412,1756 L412,1755 L411,1755 L411,1754 L409,1754 L409,1753 L408,1753 L408,1752 L407,1752 L407,1751 L405,1751 L405,1750 L404,1750 L404,1749 L402,1749 L402,1748 L401,1748 L401,1747 L399,1747 L399,1746 L398,1746 L398,1745 L397,1745 L397,1744 L395,1744 L395,1743 L394,1743 L394,1742 L392,1742 L392,1741 L391,1741 L391,1740 L389,1740 L389,1739 L388,1739 L388,1738 L387,1738 L387,1737 L385,1737 L385,1736 L384,1736 L384,1735 L382,1735 L382,1734 L381,1734 L381,1733 L380,1733 L380,1732 L378,1732 L378,1731 L377,1731 L377,1730 L376,1730 L376,1729 L374,1729 L374,1728 L373,1728 L373,1727 L371,1727 L371,1726 L370,1726 L370,1725 L369,1725 L369,1724 L367,1724 L367,1723 L366,1723 L366,1722 L365,1722 L365,1721 L363,1721 L363,1720 L362,1720 L362,1719 L361,1719 L361,1718 L359,1718 L359,1717 L358,1717 L358,1716 L357,1716 L357,1715 L355,1715 L355,1714 L354,1714 L354,1713 L353,1713 L353,1712 L351,1712 L351,1711 L350,1711 L350,1710 L349,1710 L349,1709 L347,1709 L347,1708 L346,1708 L346,1707 L345,1707 L345,1706 L343,1706 L343,1705 L342,1705 L342,1704 L341,1704 L341,1703 L340,1703 L340,1702 L338,1702 L338,1701 L337,1701 L337,1700 L336,1700 L336,1699 L334,1699 L334,1698 L333,1698 L333,1697 L332,1697 L332,1696 L331,1696 L331,1695 L329,1695 L329,1694 L328,1694 L328,1693 L327,1693 L327,1692 L326,1692 L326,1691 L324,1691 L324,1690 L323,1690 L323,1689 L322,1689 L322,1688 L321,1688 L321,1687 L319,1687 L319,1686 L318,1686 L318,1685 L317,1685 L317,1684 L316,1684 L316,1683 L314,1683 L314,1682 L313,1682 L313,1681 L312,1681 L312,1680 L311,1680 L311,1679 L310,1679 L310,1678 L308,1678 L308,1677 L307,1677 L307,1676 L306,1676 L306,1675 L305,1675 L305,1674 L304,1674 L304,1673 L302,1673 L302,1672 L301,1672 L301,1671 L300,1671 L300,1670 L299,1670 L299,1669 L298,1669 L298,1668 L296,1668 L296,1667 L295,1667 L295,1666 L294,1666 L294,1665 L293,1665 L293,1664 L292,1664 L292,1663 L291,1663 L291,1662 L289,1662 L289,1661 L288,1661 L288,1660 L287,1660 L287,1659 L286,1659 L286,1658 L285,1658 L285,1657 L284,1657 L284,1656 L283,1656 L283,1655 L281,1655 L281,1654 L280,1654 L280,1653 L279,1653 L279,1652 L278,1652 L278,1651 L277,1651 L277,1650 L276,1650 L276,1649 L275,1649 L275,1648 L273,1648 L273,1647 L272,1647 L272,1646 L271,1646 L271,1645 L270,1645 L270,1644 L269,1644 L269,1643 L268,1643 L268,1642 L267,1642 L267,1641 L266,1641 L266,1640 L265,1640 L265,1639 L264,1639 L264,1638 L262,1638 L262,1637 L261,1637 L261,1636 L260,1636 L260,1635 L259,1635 L259,1634 L258,1634 L258,1633 L257,1633 L257,1632 L256,1632 L256,1631 L255,1631 L255,1630 L254,1630 L254,1629 L253,1629 L253,1628 L252,1628 L252,1627 L251,1627 L251,1626 L250,1626 L250,1625 L249,1625 L249,1624 L248,1624 L248,1623 L247,1623 L247,1622 L245,1622 L245,1621 L244,1621 L244,1620 L243,1620 L243,1619 L242,1619 L242,1618 L241,1618 L241,1617 L240,1617 L240,1616 L239,1616 L239,1615 L238,1615 L238,1614 L237,1614 L237,1613 L236,1613 L236,1612 L235,1612 L235,1611 L234,1611 L234,1610 L233,1610 L233,1609 L232,1609 L232,1608 L231,1608 L231,1607 L230,1607 L230,1606 L229,1606 L229,1605 L228,1605 L228,1604 L227,1604 L227,1603 L226,1603 L226,1602 L225,1602 L225,1601 L224,1601 L224,1600 L223,1600 L223,1599 L222,1599 L222,1598 L221,1598 L221,1597 L220,1597 L220,1596 L219,1596 L219,1595 L218,1595 L218,1594 L217,1594 L217,1593 L216,1593 L216,1592 L215,1592 L215,1590 L214,1590 L214,1589 L213,1589 L213,1588 L212,1588 L212,1587 L211,1587 L211,1586 L210,1586 L210,1585 L209,1585 L209,1584 L208,1584 L208,1583 L207,1583 L207,1582 L206,1582 L206,1581 L205,1581 L205,1580 L204,1580 L204,1579 L203,1579 L203,1578 L202,1578 L202,1577 L201,1577 L201,1576 L200,1576 L200,1574 L199,1574 L199,1573 L198,1573 L198,1572 L197,1572 L197,1571 L196,1571 L196,1570 L195,1570 L195,1569 L194,1569 L194,1568 L193,1568 L193,1567 L192,1567 L192,1566 L191,1566 L191,1564 L190,1564 L190,1563 L189,1563 L189,1562 L188,1562 L188,1561 L187,1561 L187,1560 L186,1560 L186,1559 L185,1559 L185,1558 L184,1558 L184,1556 L183,1556 L183,1555 L182,1555 L182,1554 L181,1554 L181,1553 L180,1553 L180,1552 L179,1552 L179,1551 L178,1551 L178,1549 L177,1549 L177,1548 L176,1548 L176,1547 L175,1547 L175,1546 L174,1546 L174,1545 L173,1545 L173,1543 L172,1543 L172,1542 L171,1542 L171,1541 L170,1541 L170,1540 L169,1540 L169,1539 L168,1539 L168,1537 L167,1537 L167,1536 L166,1536 L166,1535 L165,1535 L165,1534 L164,1534 L164,1532 L163,1532 L163,1531 L162,1531 L162,1530 L161,1530 L161,1529 L160,1529 L160,1527 L159,1527 L159,1526 L158,1526 L158,1525 L157,1525 L157,1524 L156,1524 L156,1522 L155,1522 L155,1521 L154,1521 L154,1520 L153,1520 L153,1518 L152,1518 L152,1517 L151,1517 L151,1516 L150,1516 L150,1515 L149,1515 L149,1513 L148,1513 L148,1512 L147,1512 L147,1511 L146,1511 L146,1509 L145,1509 L145,1508 L144,1508 L144,1507 L143,1507 L143,1505 L142,1505 L142,1504 L141,1504 L141,1503 L140,1503 L140,1501 L139,1501 L139,1500 L138,1500 L138,1498 L137,1498 L137,1497 L136,1497 L136,1496 L135,1496 L135,1494 L134,1494 L134,1493 L133,1493 L133,1491 L132,1491 L132,1490 L131,1490 L131,1488 L130,1488 L130,1487 L129,1487 L129,1485 L128,1485 L128,1484 L127,1484 L127,1482 L126,1482 L126,1481 L125,1481 L125,1479 L124,1479 L124,1478 L123,1478 L123,1476 L122,1476 L122,1475 L121,1475 L121,1473 L120,1473 L120,1472 L119,1472 L119,1470 L118,1470 L118,1469 L117,1469 L117,1467 L116,1467 L116,1465 L115,1465 L115,1464 L114,1464 L114,1462 L113,1462 L113,1460 L112,1460 L112,1459 L111,1459 L111,1457 L110,1457 L110,1455 L109,1455 L109,1454 L108,1454 L108,1452 L107,1452 L107,1450 L106,1450 L106,1448 L105,1448 L105,1447 L104,1447 L104,1445 L103,1445 L103,1443 L102,1443 L102,1441 L101,1441 L101,1440 L100,1440 L100,1438 L99,1438 L99,1436 L98,1436 L98,1434 L97,1434 L97,1432 L96,1432 L96,1430 L95,1430 L95,1428 L94,1428 L94,1426 L93,1426 L93,1424 L92,1424 L92,1422 L91,1422 L91,1420 L90,1420 L90,1418 L89,1418 L89,1416 L88,1416 L88,1414 L87,1414 L87,1412 L86,1412 L86,1410 L85,1410 L85,1408 L84,1408 L84,1406 L83,1406 L83,1404 L82,1404 L82,1401 L81,1401 L81,1399 L80,1399 L80,1397 L79,1397 L79,1395 L78,1395 L78,1392 L77,1392 L77,1390 L76,1390 L76,1388 L75,1388 L75,1386 L74,1386 L74,1383 L73,1383 L73,1381 L72,1381 L72,1378 L71,1378 L71,1376 L70,1376 L70,1373 L69,1373 L69,1371 L68,1371 L68,1368 L67,1368 L67,1366 L66,1366 L66,1363 L65,1363 L65,1360 L64,1360 L64,1358 L63,1358 L63,1355 L62,1355 L62,1352 L61,1352 L61,1350 L60,1350 L60,1347 L59,1347 L59,1344 L58,1344 L58,1341 L57,1341 L57,1338 L56,1338 L56,1335 L55,1335 L55,1332 L54,1332 L54,1329 L53,1329 L53,1325 L52,1325 L52,1322 L51,1322 L51,1319 L50,1319 L50,1316 L49,1316 L49,1312 L48,1312 L48,1309 L47,1309 L47,1305 L46,1305 L46,1302 L45,1302 L45,1298 L44,1298 L44,1295 L43,1295 L43,1291 L42,1291 L42,1287 L41,1287 L41,1283 L40,1283 L40,1279 L39,1279 L39,1275 L38,1275 L38,1271 L37,1271 L37,1267 L36,1267 L36,1262 L35,1262 L35,1258 L34,1258 L34,1254 L33,1254 L33,1249 L32,1249 L32,1244 L31,1244 L31,1239 L30,1239 L30,1234 L29,1234 L29,1229 L28,1229 L28,1224 L27,1224 L27,1218 L26,1218 L26,1213 L25,1213 L25,1207 L24,1207 L24,1201 L23,1201 L23,1195 L22,1195 L22,1188 L21,1188 L21,1181 L20,1181 L20,1175 L19,1175 L19,1167 L18,1167 L18,1160 L17,1160 L17,1152 L16,1152 L16,1143 L15,1143 L15,1135 L14,1135 L14,1125 L13,1125 L13,1116 L12,1116 L12,1105 L11,1105 L11,1094 L10,1094 L10,1082 L9,1082 L9,1069 L8,1069 L8,1055 L7,1055 L7,1039 L6,1039 L6,1022 L5,1022 L5,1001 L4,1001 L4,978 L3,978 L3,949 L2,949 L2,911 L1,911 L1,859 L0,859 L0,787 L-1,787 L-1,699 L-2,699 L-2,568 L-3,568 L-3,272 L-2,272 L-2,143 L-1,143 L-1,60 L0,60 Z " fill="#CD0F24" transform="translate(3,0)"/>
<path d="M0,0 L567,0 L567,1843 L565,1843 L565,1844 L563,1844 L563,1845 L561,1845 L561,1846 L559,1846 L559,1847 L558,1847 L558,1848 L556,1848 L556,1849 L554,1849 L554,1850 L552,1850 L552,1851 L550,1851 L550,1852 L549,1852 L549,1853 L547,1853 L547,1854 L545,1854 L545,1855 L543,1855 L543,1856 L541,1856 L541,1857 L539,1857 L539,1858 L538,1858 L538,1859 L536,1859 L536,1860 L534,1860 L534,1861 L532,1861 L532,1862 L530,1862 L530,1863 L528,1863 L528,1864 L526,1864 L526,1865 L524,1865 L524,1866 L523,1866 L523,1867 L521,1867 L521,1868 L519,1868 L519,1869 L517,1869 L517,1870 L515,1870 L515,1871 L513,1871 L513,1872 L511,1872 L511,1873 L510,1873 L510,1874 L508,1874 L508,1875 L506,1875 L506,1876 L504,1876 L504,1877 L502,1877 L502,1878 L500,1878 L500,1879 L498,1879 L498,1880 L496,1880 L496,1881 L494,1881 L494,1882 L492,1882 L492,1883 L490,1883 L490,1884 L488,1884 L488,1885 L486,1885 L486,1886 L485,1886 L485,1887 L483,1887 L483,1888 L481,1888 L481,1889 L479,1889 L479,1890 L477,1890 L477,1891 L475,1891 L475,1892 L473,1892 L473,1893 L471,1893 L471,1894 L469,1894 L469,1895 L467,1895 L467,1896 L465,1896 L465,1897 L463,1897 L463,1898 L461,1898 L461,1899 L459,1899 L459,1900 L457,1900 L457,1901 L455,1901 L455,1902 L453,1902 L453,1903 L451,1903 L451,1904 L449,1904 L449,1905 L447,1905 L447,1906 L445,1906 L445,1907 L443,1907 L443,1908 L441,1908 L441,1909 L439,1909 L439,1910 L437,1910 L437,1911 L435,1911 L435,1912 L433,1912 L433,1913 L431,1913 L431,1914 L429,1914 L429,1915 L427,1915 L427,1916 L425,1916 L425,1917 L423,1917 L423,1918 L421,1918 L421,1919 L419,1919 L419,1920 L417,1920 L417,1921 L415,1921 L415,1922 L413,1922 L413,1923 L411,1923 L411,1924 L409,1924 L409,1925 L406,1925 L406,1926 L404,1926 L404,1927 L402,1927 L402,1928 L400,1928 L400,1929 L398,1929 L398,1930 L396,1930 L396,1931 L394,1931 L394,1932 L392,1932 L392,1933 L390,1933 L390,1934 L388,1934 L388,1935 L386,1935 L386,1936 L384,1936 L384,1937 L381,1937 L381,1938 L379,1938 L379,1939 L378,1939 L378,1 L190,1 L190,1936 L188,1936 L188,1935 L186,1935 L186,1934 L184,1934 L184,1933 L182,1933 L182,1932 L179,1932 L179,1931 L177,1931 L177,1930 L175,1930 L175,1929 L173,1929 L173,1928 L171,1928 L171,1927 L169,1927 L169,1926 L167,1926 L167,1925 L165,1925 L165,1924 L163,1924 L163,1923 L161,1923 L161,1922 L159,1922 L159,1921 L157,1921 L157,1920 L155,1920 L155,1919 L153,1919 L153,1918 L151,1918 L151,1917 L149,1917 L149,1916 L146,1916 L146,1915 L144,1915 L144,1914 L142,1914 L142,1913 L140,1913 L140,1912 L138,1912 L138,1911 L136,1911 L136,1910 L134,1910 L134,1909 L132,1909 L132,1908 L130,1908 L130,1907 L128,1907 L128,1906 L126,1906 L126,1905 L124,1905 L124,1904 L122,1904 L122,1903 L120,1903 L120,1902 L118,1902 L118,1901 L116,1901 L116,1900 L114,1900 L114,1899 L113,1899 L113,1898 L111,1898 L111,1897 L109,1897 L109,1896 L107,1896 L107,1895 L105,1895 L105,1894 L103,1894 L103,1893 L101,1893 L101,1892 L99,1892 L99,1891 L97,1891 L97,1890 L95,1890 L95,1889 L93,1889 L93,1888 L91,1888 L91,1887 L89,1887 L89,1886 L87,1886 L87,1885 L85,1885 L85,1884 L83,1884 L83,1883 L81,1883 L81,1882 L79,1882 L79,1881 L77,1881 L77,1880 L75,1880 L75,1879 L74,1879 L74,1878 L72,1878 L72,1877 L70,1877 L70,1876 L68,1876 L68,1875 L66,1875 L66,1874 L64,1874 L64,1873 L62,1873 L62,1872 L60,1872 L60,1871 L58,1871 L58,1870 L57,1870 L57,1869 L55,1869 L55,1868 L53,1868 L53,1867 L51,1867 L51,1866 L49,1866 L49,1865 L47,1865 L47,1864 L45,1864 L45,1863 L43,1863 L43,1862 L42,1862 L42,1861 L40,1861 L40,1860 L38,1860 L38,1859 L36,1859 L36,1858 L34,1858 L34,1857 L32,1857 L32,1856 L31,1856 L31,1855 L29,1855 L29,1854 L27,1854 L27,1853 L25,1853 L25,1852 L23,1852 L23,1851 L21,1851 L21,1850 L20,1850 L20,1849 L18,1849 L18,1848 L16,1848 L16,1847 L14,1847 L14,1846 L12,1846 L12,1845 L10,1845 L10,1844 L9,1844 L9,1843 L7,1843 L7,1842 L5,1842 L5,1841 L3,1841 L3,1840 L2,1840 L2,1839 L-1,1839 L-1,1838 L0,1838 Z " fill="#CE0F25" transform="translate(567,3)"/>
<path d="M0,0 L188,0 L188,1938 L187,1938 L187,1939 L185,1939 L185,1940 L183,1940 L183,1941 L181,1941 L181,1942 L179,1942 L179,1943 L177,1943 L177,1944 L175,1944 L175,1945 L172,1945 L172,1946 L170,1946 L170,1947 L168,1947 L168,1948 L166,1948 L166,1949 L164,1949 L164,1950 L162,1950 L162,1951 L160,1951 L160,1952 L158,1952 L158,1953 L155,1953 L155,1954 L153,1954 L153,1955 L151,1955 L151,1956 L149,1956 L149,1957 L147,1957 L147,1958 L145,1958 L145,1959 L142,1959 L142,1960 L140,1960 L140,1961 L138,1961 L138,1962 L136,1962 L136,1963 L134,1963 L134,1964 L132,1964 L132,1965 L129,1965 L129,1966 L127,1966 L127,1967 L125,1967 L125,1968 L123,1968 L123,1969 L121,1969 L121,1970 L119,1970 L119,1971 L116,1971 L116,1972 L114,1972 L114,1973 L112,1973 L112,1974 L110,1974 L110,1975 L108,1975 L108,1976 L105,1976 L105,1977 L103,1977 L103,1978 L101,1978 L101,1979 L99,1979 L99,1980 L95,1980 L95,1979 L93,1979 L93,1978 L90,1978 L90,1977 L88,1977 L88,1976 L86,1976 L86,1975 L84,1975 L84,1974 L82,1974 L82,1973 L79,1973 L79,1972 L77,1972 L77,1971 L75,1971 L75,1970 L73,1970 L73,1969 L71,1969 L71,1968 L68,1968 L68,1967 L66,1967 L66,1966 L64,1966 L64,1965 L62,1965 L62,1964 L60,1964 L60,1963 L57,1963 L57,1962 L55,1962 L55,1961 L53,1961 L53,1960 L51,1960 L51,1959 L49,1959 L49,1958 L47,1958 L47,1957 L44,1957 L44,1956 L42,1956 L42,1955 L40,1955 L40,1954 L38,1954 L38,1953 L36,1953 L36,1952 L34,1952 L34,1951 L32,1951 L32,1950 L29,1950 L29,1949 L27,1949 L27,1948 L25,1948 L25,1947 L23,1947 L23,1946 L21,1946 L21,1945 L19,1945 L19,1944 L17,1944 L17,1943 L15,1943 L15,1942 L12,1942 L12,1941 L10,1941 L10,1940 L8,1940 L8,1939 L6,1939 L6,1938 L4,1938 L4,1937 L2,1937 L2,1936 L0,1936 Z " fill="#FDE36D" transform="translate(757,4)"/>
<path d="M0,0 L189,0 L189,1723 L188,1723 L188,1724 L187,1724 L187,1725 L186,1725 L186,1726 L184,1726 L184,1727 L183,1727 L183,1728 L181,1728 L181,1729 L180,1729 L180,1730 L179,1730 L179,1731 L177,1731 L177,1732 L176,1732 L176,1733 L174,1733 L174,1734 L173,1734 L173,1735 L171,1735 L171,1736 L170,1736 L170,1737 L169,1737 L169,1738 L167,1738 L167,1739 L166,1739 L166,1740 L164,1740 L164,1741 L163,1741 L163,1742 L161,1742 L161,1743 L160,1743 L160,1744 L159,1744 L159,1745 L157,1745 L157,1746 L156,1746 L156,1747 L154,1747 L154,1748 L153,1748 L153,1749 L151,1749 L151,1750 L150,1750 L150,1751 L148,1751 L148,1752 L147,1752 L147,1753 L145,1753 L145,1754 L144,1754 L144,1755 L142,1755 L142,1756 L141,1756 L141,1757 L139,1757 L139,1758 L138,1758 L138,1759 L136,1759 L136,1760 L135,1760 L135,1761 L133,1761 L133,1762 L132,1762 L132,1763 L130,1763 L130,1764 L129,1764 L129,1765 L127,1765 L127,1766 L126,1766 L126,1767 L124,1767 L124,1768 L123,1768 L123,1769 L121,1769 L121,1770 L120,1770 L120,1771 L118,1771 L118,1772 L117,1772 L117,1773 L115,1773 L115,1774 L113,1774 L113,1775 L112,1775 L112,1776 L110,1776 L110,1777 L109,1777 L109,1778 L107,1778 L107,1779 L106,1779 L106,1780 L104,1780 L104,1781 L102,1781 L102,1782 L101,1782 L101,1783 L99,1783 L99,1784 L98,1784 L98,1785 L96,1785 L96,1786 L94,1786 L94,1787 L93,1787 L93,1788 L91,1788 L91,1789 L90,1789 L90,1790 L88,1790 L88,1791 L86,1791 L86,1792 L85,1792 L85,1793 L83,1793 L83,1794 L82,1794 L82,1795 L80,1795 L80,1796 L78,1796 L78,1797 L77,1797 L77,1798 L75,1798 L75,1799 L73,1799 L73,1800 L72,1800 L72,1801 L70,1801 L70,1802 L68,1802 L68,1803 L67,1803 L67,1804 L65,1804 L65,1805 L64,1805 L64,1806 L62,1806 L62,1807 L60,1807 L60,1808 L58,1808 L58,1809 L57,1809 L57,1810 L55,1810 L55,1811 L53,1811 L53,1812 L52,1812 L52,1813 L50,1813 L50,1814 L48,1814 L48,1815 L47,1815 L47,1816 L45,1816 L45,1817 L43,1817 L43,1818 L42,1818 L42,1819 L40,1819 L40,1820 L38,1820 L38,1821 L36,1821 L36,1822 L35,1822 L35,1823 L33,1823 L33,1824 L31,1824 L31,1825 L30,1825 L30,1826 L28,1826 L28,1827 L26,1827 L26,1828 L24,1828 L24,1829 L23,1829 L23,1830 L21,1830 L21,1831 L19,1831 L19,1832 L17,1832 L17,1833 L16,1833 L16,1834 L14,1834 L14,1835 L12,1835 L12,1836 L10,1836 L10,1837 L8,1837 L8,1838 L7,1838 L7,1839 L5,1839 L5,1840 L3,1840 L3,1841 L2,1841 L2,1842 L0,1842 Z " fill="#FDE36D" transform="translate(1134,3)"/>
<path d="M0,0 L189,0 L189,1838 L187,1838 L187,1837 L185,1837 L185,1836 L183,1836 L183,1835 L182,1835 L182,1834 L180,1834 L180,1833 L178,1833 L178,1832 L176,1832 L176,1831 L175,1831 L175,1830 L173,1830 L173,1829 L171,1829 L171,1828 L169,1828 L169,1827 L168,1827 L168,1826 L166,1826 L166,1825 L164,1825 L164,1824 L162,1824 L162,1823 L161,1823 L161,1822 L159,1822 L159,1821 L157,1821 L157,1820 L156,1820 L156,1819 L154,1819 L154,1818 L152,1818 L152,1817 L150,1817 L150,1816 L149,1816 L149,1815 L147,1815 L147,1814 L145,1814 L145,1813 L144,1813 L144,1812 L142,1812 L142,1811 L140,1811 L140,1810 L139,1810 L139,1809 L137,1809 L137,1808 L135,1808 L135,1807 L134,1807 L134,1806 L132,1806 L132,1805 L130,1805 L130,1804 L129,1804 L129,1803 L127,1803 L127,1802 L125,1802 L125,1801 L124,1801 L124,1800 L122,1800 L122,1799 L120,1799 L120,1798 L119,1798 L119,1797 L117,1797 L117,1796 L116,1796 L116,1795 L114,1795 L114,1794 L112,1794 L112,1793 L111,1793 L111,1792 L109,1792 L109,1791 L107,1791 L107,1790 L106,1790 L106,1789 L104,1789 L104,1788 L103,1788 L103,1787 L101,1787 L101,1786 L99,1786 L99,1785 L98,1785 L98,1784 L96,1784 L96,1783 L95,1783 L95,1782 L93,1782 L93,1781 L91,1781 L91,1780 L90,1780 L90,1779 L88,1779 L88,1778 L87,1778 L87,1777 L85,1777 L85,1776 L84,1776 L84,1775 L82,1775 L82,1774 L81,1774 L81,1773 L79,1773 L79,1772 L77,1772 L77,1771 L76,1771 L76,1770 L74,1770 L74,1769 L73,1769 L73,1768 L71,1768 L71,1767 L70,1767 L70,1766 L68,1766 L68,1765 L67,1765 L67,1764 L65,1764 L65,1763 L64,1763 L64,1762 L62,1762 L62,1761 L61,1761 L61,1760 L59,1760 L59,1759 L58,1759 L58,1758 L56,1758 L56,1757 L55,1757 L55,1756 L53,1756 L53,1755 L52,1755 L52,1754 L50,1754 L50,1753 L49,1753 L49,1752 L47,1752 L47,1751 L46,1751 L46,1750 L44,1750 L44,1749 L43,1749 L43,1748 L41,1748 L41,1747 L40,1747 L40,1746 L38,1746 L38,1745 L37,1745 L37,1744 L35,1744 L35,1743 L34,1743 L34,1742 L33,1742 L33,1741 L31,1741 L31,1740 L30,1740 L30,1739 L28,1739 L28,1738 L27,1738 L27,1737 L25,1737 L25,1736 L24,1736 L24,1735 L23,1735 L23,1734 L21,1734 L21,1733 L20,1733 L20,1732 L18,1732 L18,1731 L17,1731 L17,1730 L15,1730 L15,1729 L14,1729 L14,1728 L13,1728 L13,1727 L11,1727 L11,1726 L10,1726 L10,1725 L9,1725 L9,1724 L7,1724 L7,1723 L6,1723 L6,1722 L4,1722 L4,1721 L3,1721 L3,1720 L2,1720 L2,1719 L0,1719 Z " fill="#FDE36D" transform="translate(378,3)"/>
<path d="M0,0 L189,0 L189,1555 L188,1555 L188,1556 L187,1556 L187,1557 L186,1557 L186,1558 L185,1558 L185,1559 L184,1559 L184,1560 L183,1560 L183,1561 L182,1561 L182,1562 L181,1562 L181,1564 L180,1564 L180,1565 L179,1565 L179,1566 L178,1566 L178,1567 L177,1567 L177,1568 L176,1568 L176,1569 L175,1569 L175,1570 L174,1570 L174,1571 L173,1571 L173,1572 L172,1572 L172,1573 L171,1573 L171,1574 L170,1574 L170,1576 L169,1576 L169,1577 L168,1577 L168,1578 L167,1578 L167,1579 L166,1579 L166,1580 L165,1580 L165,1581 L164,1581 L164,1582 L163,1582 L163,1583 L162,1583 L162,1584 L161,1584 L161,1585 L160,1585 L160,1586 L159,1586 L159,1587 L158,1587 L158,1588 L157,1588 L157,1589 L156,1589 L156,1590 L155,1590 L155,1591 L154,1591 L154,1592 L153,1592 L153,1593 L152,1593 L152,1594 L151,1594 L151,1595 L150,1595 L150,1596 L149,1596 L149,1597 L148,1597 L148,1598 L147,1598 L147,1599 L146,1599 L146,1600 L145,1600 L145,1601 L144,1601 L144,1602 L143,1602 L143,1603 L142,1603 L142,1604 L141,1604 L141,1605 L140,1605 L140,1606 L139,1606 L139,1607 L138,1607 L138,1608 L137,1608 L137,1609 L136,1609 L136,1610 L135,1610 L135,1611 L134,1611 L134,1612 L133,1612 L133,1613 L132,1613 L132,1614 L131,1614 L131,1615 L130,1615 L130,1616 L129,1616 L129,1617 L128,1617 L128,1618 L127,1618 L127,1619 L126,1619 L126,1620 L125,1620 L125,1621 L124,1621 L124,1622 L123,1622 L123,1623 L121,1623 L121,1624 L120,1624 L120,1625 L119,1625 L119,1626 L118,1626 L118,1627 L117,1627 L117,1628 L116,1628 L116,1629 L115,1629 L115,1630 L114,1630 L114,1631 L113,1631 L113,1632 L112,1632 L112,1633 L111,1633 L111,1634 L110,1634 L110,1635 L109,1635 L109,1636 L107,1636 L107,1637 L106,1637 L106,1638 L105,1638 L105,1639 L104,1639 L104,1640 L103,1640 L103,1641 L102,1641 L102,1642 L101,1642 L101,1643 L100,1643 L100,1644 L98,1644 L98,1645 L97,1645 L97,1646 L96,1646 L96,1647 L95,1647 L95,1648 L94,1648 L94,1649 L93,1649 L93,1650 L92,1650 L92,1651 L91,1651 L91,1652 L89,1652 L89,1653 L88,1653 L88,1654 L87,1654 L87,1655 L86,1655 L86,1656 L85,1656 L85,1657 L84,1657 L84,1658 L82,1658 L82,1659 L81,1659 L81,1660 L80,1660 L80,1661 L79,1661 L79,1662 L78,1662 L78,1663 L76,1663 L76,1664 L75,1664 L75,1665 L74,1665 L74,1666 L73,1666 L73,1667 L72,1667 L72,1668 L70,1668 L70,1669 L69,1669 L69,1670 L68,1670 L68,1671 L67,1671 L67,1672 L66,1672 L66,1673 L64,1673 L64,1674 L63,1674 L63,1675 L62,1675 L62,1676 L61,1676 L61,1677 L59,1677 L59,1678 L58,1678 L58,1679 L57,1679 L57,1680 L56,1680 L56,1681 L55,1681 L55,1682 L53,1682 L53,1683 L52,1683 L52,1684 L51,1684 L51,1685 L50,1685 L50,1686 L48,1686 L48,1687 L47,1687 L47,1688 L46,1688 L46,1689 L44,1689 L44,1690 L43,1690 L43,1691 L42,1691 L42,1692 L41,1692 L41,1693 L39,1693 L39,1694 L38,1694 L38,1695 L37,1695 L37,1696 L35,1696 L35,1697 L34,1697 L34,1698 L33,1698 L33,1699 L32,1699 L32,1700 L30,1700 L30,1701 L29,1701 L29,1702 L28,1702 L28,1703 L26,1703 L26,1704 L25,1704 L25,1705 L24,1705 L24,1706 L22,1706 L22,1707 L21,1707 L21,1708 L20,1708 L20,1709 L18,1709 L18,1710 L17,1710 L17,1711 L16,1711 L16,1712 L14,1712 L14,1713 L13,1713 L13,1714 L12,1714 L12,1715 L10,1715 L10,1716 L9,1716 L9,1717 L8,1717 L8,1718 L6,1718 L6,1719 L5,1719 L5,1720 L3,1720 L3,1721 L2,1721 L2,1722 L1,1722 L1,1723 L0,1723 Z " fill="#CE0F25" transform="translate(1323,3)"/>
<path d="M0,0 L186,0 L186,52 L187,52 L187,90 L188,90 L188,249 L189,249 L189,588 L188,588 L188,726 L187,726 L187,816 L186,816 L186,886 L185,886 L185,925 L184,925 L184,950 L183,950 L183,979 L182,979 L182,1004 L181,1004 L181,1019 L180,1019 L180,1037 L179,1037 L179,1053 L178,1053 L178,1068 L177,1068 L177,1078 L176,1078 L176,1093 L175,1093 L175,1104 L174,1104 L174,1115 L173,1115 L173,1126 L172,1126 L172,1132 L171,1132 L171,1143 L170,1143 L170,1149 L169,1149 L169,1157 L168,1157 L168,1167 L167,1167 L167,1172 L166,1172 L166,1181 L165,1181 L165,1184 L164,1184 L164,1192 L163,1192 L163,1198 L162,1198 L162,1204 L161,1204 L161,1210 L160,1210 L160,1216 L159,1216 L159,1221 L158,1221 L158,1225 L157,1225 L157,1232 L156,1232 L156,1237 L155,1237 L155,1240 L154,1240 L154,1245 L153,1245 L153,1251 L152,1251 L152,1254 L151,1254 L151,1260 L150,1260 L150,1263 L149,1263 L149,1269 L148,1269 L148,1273 L147,1273 L147,1277 L146,1277 L146,1281 L145,1281 L145,1283 L144,1283 L144,1287 L143,1287 L143,1291 L142,1291 L142,1296 L141,1296 L141,1298 L140,1298 L140,1303 L139,1303 L139,1305 L138,1305 L138,1309 L137,1309 L137,1312 L136,1312 L136,1315 L135,1315 L135,1318 L134,1318 L134,1321 L133,1321 L133,1325 L132,1325 L132,1328 L131,1328 L131,1331 L130,1331 L130,1334 L129,1334 L129,1337 L128,1337 L128,1340 L127,1340 L127,1343 L126,1343 L126,1346 L125,1346 L125,1348 L124,1348 L124,1351 L123,1351 L123,1354 L122,1354 L122,1356 L121,1356 L121,1359 L120,1359 L120,1362 L119,1362 L119,1364 L118,1364 L118,1367 L117,1367 L117,1369 L116,1369 L116,1372 L115,1372 L115,1374 L114,1374 L114,1377 L113,1377 L113,1379 L112,1379 L112,1381 L111,1381 L111,1384 L110,1384 L110,1386 L109,1386 L109,1388 L108,1388 L108,1391 L107,1391 L107,1393 L106,1393 L106,1395 L105,1395 L105,1397 L104,1397 L104,1399 L103,1399 L103,1402 L102,1402 L102,1404 L101,1404 L101,1406 L100,1406 L100,1408 L99,1408 L99,1410 L98,1410 L98,1412 L97,1412 L97,1414 L96,1414 L96,1416 L95,1416 L95,1418 L94,1418 L94,1420 L93,1420 L93,1422 L92,1422 L92,1424 L91,1424 L91,1426 L90,1426 L90,1428 L89,1428 L89,1430 L88,1430 L88,1431 L87,1431 L87,1433 L86,1433 L86,1435 L85,1435 L85,1437 L84,1437 L84,1439 L83,1439 L83,1440 L82,1440 L82,1442 L81,1442 L81,1444 L80,1444 L80,1446 L79,1446 L79,1447 L78,1447 L78,1449 L77,1449 L77,1451 L76,1451 L76,1452 L75,1452 L75,1454 L74,1454 L74,1456 L73,1456 L73,1457 L72,1457 L72,1459 L71,1459 L71,1461 L70,1461 L70,1462 L69,1462 L69,1464 L68,1464 L68,1465 L67,1465 L67,1467 L66,1467 L66,1469 L65,1469 L65,1470 L64,1470 L64,1472 L63,1472 L63,1473 L62,1473 L62,1475 L61,1475 L61,1476 L60,1476 L60,1478 L59,1478 L59,1479 L58,1479 L58,1481 L57,1481 L57,1482 L56,1482 L56,1484 L55,1484 L55,1485 L54,1485 L54,1486 L53,1486 L53,1488 L52,1488 L52,1489 L51,1489 L51,1491 L50,1491 L50,1492 L49,1492 L49,1493 L48,1493 L48,1495 L47,1495 L47,1496 L46,1496 L46,1498 L45,1498 L45,1499 L44,1499 L44,1500 L43,1500 L43,1502 L42,1502 L42,1503 L41,1503 L41,1504 L40,1504 L40,1506 L39,1506 L39,1507 L38,1507 L38,1508 L37,1508 L37,1509 L36,1509 L36,1511 L35,1511 L35,1512 L34,1512 L34,1513 L33,1513 L33,1515 L32,1515 L32,1516 L31,1516 L31,1517 L30,1517 L30,1518 L29,1518 L29,1520 L28,1520 L28,1521 L27,1521 L27,1522 L26,1522 L26,1524 L25,1524 L25,1525 L24,1525 L24,1526 L23,1526 L23,1527 L22,1527 L22,1529 L21,1529 L21,1530 L20,1530 L20,1531 L19,1531 L19,1532 L18,1532 L18,1533 L17,1533 L17,1535 L16,1535 L16,1536 L15,1536 L15,1537 L14,1537 L14,1538 L13,1538 L13,1539 L12,1539 L12,1541 L11,1541 L11,1542 L10,1542 L10,1543 L9,1543 L9,1544 L8,1544 L8,1545 L7,1545 L7,1546 L6,1546 L6,1548 L5,1548 L5,1549 L4,1549 L4,1550 L3,1550 L3,1551 L2,1551 L2,1552 L1,1552 L1,1553 L0,1553 Z " fill="#FDE36D" transform="translate(1512,3)"/>
<path d="M0,0 L181,0 L181,1547 L180,1547 L180,1546 L179,1546 L179,1545 L178,1545 L178,1544 L177,1544 L177,1542 L176,1542 L176,1541 L175,1541 L175,1540 L174,1540 L174,1539 L173,1539 L173,1538 L172,1538 L172,1536 L171,1536 L171,1535 L170,1535 L170,1534 L169,1534 L169,1533 L168,1533 L168,1532 L167,1532 L167,1530 L166,1530 L166,1529 L165,1529 L165,1528 L164,1528 L164,1527 L163,1527 L163,1526 L162,1526 L162,1524 L161,1524 L161,1523 L160,1523 L160,1522 L159,1522 L159,1520 L158,1520 L158,1519 L157,1519 L157,1518 L156,1518 L156,1517 L155,1517 L155,1515 L154,1515 L154,1514 L153,1514 L153,1513 L152,1513 L152,1512 L151,1512 L151,1510 L150,1510 L150,1509 L149,1509 L149,1508 L148,1508 L148,1506 L147,1506 L147,1505 L146,1505 L146,1504 L145,1504 L145,1502 L144,1502 L144,1501 L143,1501 L143,1500 L142,1500 L142,1498 L141,1498 L141,1497 L140,1497 L140,1496 L139,1496 L139,1494 L138,1494 L138,1493 L137,1493 L137,1491 L136,1491 L136,1490 L135,1490 L135,1489 L134,1489 L134,1487 L133,1487 L133,1486 L132,1486 L132,1484 L131,1484 L131,1483 L130,1483 L130,1481 L129,1481 L129,1480 L128,1480 L128,1479 L127,1479 L127,1477 L126,1477 L126,1476 L125,1476 L125,1474 L124,1474 L124,1473 L123,1473 L123,1471 L122,1471 L122,1469 L121,1469 L121,1468 L120,1468 L120,1466 L119,1466 L119,1465 L118,1465 L118,1463 L117,1463 L117,1462 L116,1462 L116,1460 L115,1460 L115,1458 L114,1458 L114,1457 L113,1457 L113,1455 L112,1455 L112,1453 L111,1453 L111,1452 L110,1452 L110,1450 L109,1450 L109,1448 L108,1448 L108,1447 L107,1447 L107,1445 L106,1445 L106,1443 L105,1443 L105,1441 L104,1441 L104,1440 L103,1440 L103,1438 L102,1438 L102,1436 L101,1436 L101,1434 L100,1434 L100,1432 L99,1432 L99,1431 L98,1431 L98,1429 L97,1429 L97,1427 L96,1427 L96,1425 L95,1425 L95,1423 L94,1423 L94,1421 L93,1421 L93,1419 L92,1419 L92,1417 L91,1417 L91,1415 L90,1415 L90,1413 L89,1413 L89,1411 L88,1411 L88,1409 L87,1409 L87,1407 L86,1407 L86,1405 L85,1405 L85,1403 L84,1403 L84,1401 L83,1401 L83,1399 L82,1399 L82,1396 L81,1396 L81,1394 L80,1394 L80,1392 L79,1392 L79,1390 L78,1390 L78,1387 L77,1387 L77,1385 L76,1385 L76,1383 L75,1383 L75,1380 L74,1380 L74,1378 L73,1378 L73,1376 L72,1376 L72,1373 L71,1373 L71,1371 L70,1371 L70,1368 L69,1368 L69,1366 L68,1366 L68,1363 L67,1363 L67,1360 L66,1360 L66,1358 L65,1358 L65,1355 L64,1355 L64,1352 L63,1352 L63,1350 L62,1350 L62,1347 L61,1347 L61,1344 L60,1344 L60,1341 L59,1341 L59,1338 L58,1338 L58,1335 L57,1335 L57,1332 L56,1332 L56,1329 L55,1329 L55,1326 L54,1326 L54,1323 L53,1323 L53,1320 L52,1320 L52,1317 L51,1317 L51,1314 L50,1314 L50,1310 L49,1310 L49,1307 L48,1307 L48,1305 L47,1305 L47,1300 L46,1300 L46,1298 L45,1298 L45,1293 L44,1293 L44,1289 L43,1289 L43,1287 L42,1287 L42,1283 L41,1283 L41,1279 L40,1279 L40,1275 L39,1275 L39,1271 L38,1271 L38,1265 L37,1265 L37,1261 L36,1261 L36,1258 L35,1258 L35,1254 L34,1254 L34,1249 L33,1249 L33,1243 L32,1243 L32,1238 L31,1238 L31,1233 L30,1233 L30,1228 L29,1228 L29,1224 L28,1224 L28,1219 L27,1219 L27,1212 L26,1212 L26,1206 L25,1206 L25,1200 L24,1200 L24,1194 L23,1194 L23,1189 L22,1189 L22,1185 L21,1185 L21,1178 L20,1178 L20,1171 L19,1171 L19,1161 L18,1161 L18,1156 L17,1156 L17,1145 L16,1145 L16,1139 L15,1139 L15,1128 L14,1128 L14,1118 L13,1118 L13,1112 L12,1112 L12,1097 L11,1097 L11,1088 L10,1088 L10,1075 L9,1075 L9,1067 L8,1067 L8,1052 L7,1052 L7,1029 L6,1029 L6,1015 L5,1015 L5,987 L4,987 L4,966 L3,966 L3,949 L2,949 L2,896 L1,896 L1,850 L0,850 L0,752 L-1,752 L-1,667 L-2,667 L-2,563 L-3,563 L-3,265 L-2,265 L-2,151 L-1,151 L-1,77 L0,77 Z " fill="#FDE36D" transform="translate(9,3)"/>
<path d="M0,0 L1701,0 L1701,27 L1702,27 L1702,100 L1703,100 L1703,201 L1704,201 L1704,641 L1703,641 L1703,745 L1702,745 L1702,821 L1701,821 L1701,884 L1700,884 L1700,928 L1699,928 L1699,962 L1698,962 L1698,989 L1697,989 L1697,1010 L1696,1010 L1696,1029 L1695,1029 L1695,1046 L1694,1046 L1694,1061 L1693,1061 L1693,1075 L1692,1075 L1692,1088 L1691,1088 L1691,1099 L1690,1099 L1690,1110 L1689,1110 L1689,1120 L1688,1120 L1688,1130 L1687,1130 L1687,1138 L1686,1138 L1686,1147 L1685,1147 L1685,1155 L1684,1155 L1684,1163 L1683,1163 L1683,1170 L1682,1170 L1682,1178 L1681,1178 L1681,1184 L1680,1184 L1680,1191 L1679,1191 L1679,1197 L1678,1197 L1678,1203 L1677,1203 L1677,1209 L1676,1209 L1676,1215 L1675,1215 L1675,1221 L1674,1221 L1674,1226 L1673,1226 L1673,1231 L1672,1231 L1672,1237 L1671,1237 L1671,1241 L1670,1241 L1670,1246 L1669,1246 L1669,1251 L1668,1251 L1668,1256 L1667,1256 L1667,1260 L1666,1260 L1666,1264 L1665,1264 L1665,1269 L1664,1269 L1664,1273 L1663,1273 L1663,1277 L1662,1277 L1662,1281 L1661,1281 L1661,1285 L1660,1285 L1660,1289 L1659,1289 L1659,1293 L1658,1293 L1658,1296 L1657,1296 L1657,1300 L1656,1300 L1656,1303 L1655,1303 L1655,1307 L1654,1307 L1654,1311 L1653,1311 L1653,1314 L1652,1314 L1652,1317 L1651,1317 L1651,1320 L1650,1320 L1650,1324 L1649,1324 L1649,1327 L1648,1327 L1648,1330 L1647,1330 L1647,1333 L1646,1333 L1646,1336 L1645,1336 L1645,1339 L1644,1339 L1644,1342 L1643,1342 L1643,1345 L1642,1345 L1642,1348 L1641,1348 L1641,1351 L1640,1351 L1640,1353 L1639,1353 L1639,1356 L1638,1356 L1638,1359 L1637,1359 L1637,1362 L1636,1362 L1636,1364 L1635,1364 L1635,1367 L1634,1367 L1634,1370 L1633,1370 L1633,1372 L1632,1372 L1632,1374 L1631,1374 L1631,1377 L1630,1377 L1630,1379 L1629,1379 L1629,1382 L1628,1382 L1628,1384 L1627,1384 L1627,1387 L1626,1387 L1626,1389 L1625,1389 L1625,1391 L1624,1391 L1624,1393 L1623,1393 L1623,1396 L1622,1396 L1622,1398 L1621,1398 L1621,1400 L1620,1400 L1620,1403 L1619,1403 L1619,1405 L1618,1405 L1618,1407 L1617,1407 L1617,1409 L1616,1409 L1616,1411 L1615,1411 L1615,1413 L1614,1413 L1614,1415 L1613,1415 L1613,1417 L1612,1417 L1612,1419 L1611,1419 L1611,1421 L1610,1421 L1610,1423 L1609,1423 L1609,1425 L1608,1425 L1608,1427 L1607,1427 L1607,1429 L1606,1429 L1606,1431 L1605,1431 L1605,1433 L1604,1433 L1604,1435 L1603,1435 L1603,1437 L1602,1437 L1602,1439 L1601,1439 L1601,1440 L1600,1440 L1600,1442 L1599,1442 L1599,1444 L1598,1444 L1598,1446 L1597,1446 L1597,1448 L1596,1448 L1596,1449 L1595,1449 L1595,1451 L1594,1451 L1594,1453 L1593,1453 L1593,1455 L1592,1455 L1592,1456 L1591,1456 L1591,1458 L1590,1458 L1590,1460 L1589,1460 L1589,1461 L1588,1461 L1588,1463 L1587,1463 L1587,1464 L1586,1464 L1586,1466 L1585,1466 L1585,1468 L1584,1468 L1584,1469 L1583,1469 L1583,1471 L1582,1471 L1582,1472 L1581,1472 L1581,1474 L1580,1474 L1580,1476 L1579,1476 L1579,1477 L1578,1477 L1578,1479 L1577,1479 L1577,1480 L1576,1480 L1576,1482 L1575,1482 L1575,1483 L1574,1483 L1574,1485 L1573,1485 L1573,1486 L1572,1486 L1572,1488 L1571,1488 L1571,1489 L1570,1489 L1570,1490 L1569,1490 L1569,1492 L1568,1492 L1568,1493 L1567,1493 L1567,1495 L1566,1495 L1566,1496 L1565,1496 L1565,1498 L1564,1498 L1564,1499 L1563,1499 L1563,1500 L1562,1500 L1562,1502 L1561,1502 L1561,1503 L1560,1503 L1560,1504 L1559,1504 L1559,1506 L1558,1506 L1558,1507 L1557,1507 L1557,1508 L1556,1508 L1556,1510 L1555,1510 L1555,1511 L1554,1511 L1554,1513 L1553,1513 L1553,1514 L1552,1514 L1552,1515 L1551,1515 L1551,1516 L1550,1516 L1550,1518 L1549,1518 L1549,1519 L1548,1519 L1548,1520 L1547,1520 L1547,1522 L1546,1522 L1546,1523 L1545,1523 L1545,1524 L1544,1524 L1544,1525 L1543,1525 L1543,1527 L1542,1527 L1542,1528 L1541,1528 L1541,1529 L1540,1529 L1540,1530 L1539,1530 L1539,1532 L1538,1532 L1538,1533 L1537,1533 L1537,1534 L1536,1534 L1536,1535 L1535,1535 L1535,1537 L1534,1537 L1534,1538 L1533,1538 L1533,1539 L1532,1539 L1532,1540 L1531,1540 L1531,1542 L1530,1542 L1530,1543 L1529,1543 L1529,1544 L1528,1544 L1528,1545 L1527,1545 L1527,1546 L1526,1546 L1526,1548 L1525,1548 L1525,1549 L1524,1549 L1524,1550 L1523,1550 L1523,1551 L1522,1551 L1522,1552 L1521,1552 L1521,1553 L1520,1553 L1520,1555 L1519,1555 L1519,1556 L1518,1556 L1518,1557 L1517,1557 L1517,1558 L1516,1558 L1516,1559 L1515,1559 L1515,1560 L1514,1560 L1514,1561 L1513,1561 L1513,1563 L1512,1563 L1512,1564 L1511,1564 L1511,1565 L1510,1565 L1510,1566 L1509,1566 L1509,1567 L1508,1567 L1508,1568 L1507,1568 L1507,1569 L1506,1569 L1506,1570 L1505,1570 L1505,1572 L1504,1572 L1504,1573 L1503,1573 L1503,1574 L1502,1574 L1502,1575 L1501,1575 L1501,1576 L1500,1576 L1500,1577 L1499,1577 L1499,1578 L1498,1578 L1498,1579 L1497,1579 L1497,1580 L1496,1580 L1496,1581 L1495,1581 L1495,1582 L1494,1582 L1494,1584 L1493,1584 L1493,1585 L1492,1585 L1492,1586 L1491,1586 L1491,1587 L1490,1587 L1490,1588 L1489,1588 L1489,1589 L1488,1589 L1488,1590 L1487,1590 L1487,1591 L1486,1591 L1486,1592 L1485,1592 L1485,1593 L1484,1593 L1484,1594 L1483,1594 L1483,1595 L1482,1595 L1482,1596 L1481,1596 L1481,1597 L1480,1597 L1480,1598 L1479,1598 L1479,1599 L1478,1599 L1478,1600 L1477,1600 L1477,1601 L1476,1601 L1476,1602 L1475,1602 L1475,1603 L1474,1603 L1474,1604 L1473,1604 L1473,1605 L1472,1605 L1472,1606 L1471,1606 L1471,1607 L1470,1607 L1470,1608 L1469,1608 L1469,1609 L1468,1609 L1468,1610 L1467,1610 L1467,1611 L1466,1611 L1466,1612 L1465,1612 L1465,1613 L1464,1613 L1464,1614 L1463,1614 L1463,1615 L1462,1615 L1462,1616 L1461,1616 L1461,1617 L1460,1617 L1460,1618 L1459,1618 L1459,1619 L1458,1619 L1458,1620 L1457,1620 L1457,1621 L1456,1621 L1456,1622 L1455,1622 L1455,1623 L1454,1623 L1454,1624 L1453,1624 L1453,1625 L1452,1625 L1452,1626 L1451,1626 L1451,1627 L1450,1627 L1450,1628 L1449,1628 L1449,1629 L1448,1629 L1448,1630 L1447,1630 L1447,1631 L1445,1631 L1445,1632 L1444,1632 L1444,1633 L1443,1633 L1443,1634 L1442,1634 L1442,1635 L1441,1635 L1441,1636 L1440,1636 L1440,1637 L1439,1637 L1439,1638 L1438,1638 L1438,1639 L1437,1639 L1437,1640 L1436,1640 L1436,1641 L1435,1641 L1435,1642 L1434,1642 L1434,1643 L1432,1643 L1432,1644 L1431,1644 L1431,1645 L1430,1645 L1430,1646 L1429,1646 L1429,1647 L1428,1647 L1428,1648 L1427,1648 L1427,1649 L1426,1649 L1426,1650 L1425,1650 L1425,1651 L1423,1651 L1423,1652 L1422,1652 L1422,1653 L1421,1653 L1421,1654 L1420,1654 L1420,1655 L1419,1655 L1419,1656 L1418,1656 L1418,1657 L1417,1657 L1417,1658 L1416,1658 L1416,1659 L1414,1659 L1414,1660 L1413,1660 L1413,1661 L1412,1661 L1412,1662 L1411,1662 L1411,1663 L1410,1663 L1410,1664 L1409,1664 L1409,1665 L1407,1665 L1407,1666 L1406,1666 L1406,1667 L1405,1667 L1405,1668 L1404,1668 L1404,1669 L1403,1669 L1403,1670 L1401,1670 L1401,1671 L1400,1671 L1400,1672 L1399,1672 L1399,1673 L1398,1673 L1398,1674 L1397,1674 L1397,1675 L1396,1675 L1396,1676 L1394,1676 L1394,1677 L1393,1677 L1393,1678 L1392,1678 L1392,1679 L1391,1679 L1391,1680 L1389,1680 L1389,1681 L1388,1681 L1388,1682 L1387,1682 L1387,1683 L1386,1683 L1386,1684 L1385,1684 L1385,1685 L1383,1685 L1383,1686 L1382,1686 L1382,1687 L1381,1687 L1381,1688 L1380,1688 L1380,1689 L1378,1689 L1378,1690 L1377,1690 L1377,1691 L1376,1691 L1376,1692 L1375,1692 L1375,1693 L1373,1693 L1373,1694 L1372,1694 L1372,1695 L1371,1695 L1371,1696 L1370,1696 L1370,1697 L1368,1697 L1368,1698 L1367,1698 L1367,1699 L1366,1699 L1366,1700 L1364,1700 L1364,1701 L1363,1701 L1363,1702 L1362,1702 L1362,1703 L1361,1703 L1361,1704 L1359,1704 L1359,1705 L1358,1705 L1358,1706 L1357,1706 L1357,1707 L1355,1707 L1355,1708 L1354,1708 L1354,1709 L1353,1709 L1353,1710 L1352,1710 L1352,1711 L1350,1711 L1350,1712 L1349,1712 L1349,1713 L1348,1713 L1348,1714 L1346,1714 L1346,1715 L1345,1715 L1345,1716 L1344,1716 L1344,1717 L1342,1717 L1342,1718 L1341,1718 L1341,1719 L1340,1719 L1340,1720 L1338,1720 L1338,1721 L1337,1721 L1337,1722 L1336,1722 L1336,1723 L1334,1723 L1334,1724 L1333,1724 L1333,1725 L1331,1725 L1331,1726 L1330,1726 L1330,1727 L1329,1727 L1329,1728 L1327,1728 L1327,1729 L1326,1729 L1326,1730 L1325,1730 L1325,1731 L1323,1731 L1323,1732 L1322,1732 L1322,1733 L1320,1733 L1320,1734 L1319,1734 L1319,1735 L1318,1735 L1318,1736 L1316,1736 L1316,1737 L1315,1737 L1315,1738 L1314,1738 L1314,1739 L1312,1739 L1312,1740 L1311,1740 L1311,1741 L1309,1741 L1309,1742 L1308,1742 L1308,1743 L1306,1743 L1306,1744 L1305,1744 L1305,1745 L1304,1745 L1304,1746 L1302,1746 L1302,1747 L1301,1747 L1301,1748 L1299,1748 L1299,1749 L1298,1749 L1298,1750 L1296,1750 L1296,1751 L1295,1751 L1295,1752 L1294,1752 L1294,1753 L1292,1753 L1292,1754 L1291,1754 L1291,1755 L1289,1755 L1289,1756 L1288,1756 L1288,1757 L1286,1757 L1286,1758 L1285,1758 L1285,1759 L1283,1759 L1283,1760 L1282,1760 L1282,1761 L1280,1761 L1280,1762 L1279,1762 L1279,1763 L1277,1763 L1277,1764 L1276,1764 L1276,1765 L1274,1765 L1274,1766 L1273,1766 L1273,1767 L1271,1767 L1271,1768 L1270,1768 L1270,1769 L1268,1769 L1268,1770 L1267,1770 L1267,1771 L1265,1771 L1265,1772 L1264,1772 L1264,1773 L1262,1773 L1262,1774 L1261,1774 L1261,1775 L1259,1775 L1259,1776 L1258,1776 L1258,1777 L1256,1777 L1256,1778 L1255,1778 L1255,1779 L1253,1779 L1253,1780 L1251,1780 L1251,1781 L1250,1781 L1250,1782 L1248,1782 L1248,1783 L1247,1783 L1247,1784 L1245,1784 L1245,1785 L1244,1785 L1244,1786 L1242,1786 L1242,1787 L1241,1787 L1241,1788 L1239,1788 L1239,1789 L1237,1789 L1237,1790 L1236,1790 L1236,1791 L1234,1791 L1234,1792 L1233,1792 L1233,1793 L1231,1793 L1231,1794 L1229,1794 L1229,1795 L1228,1795 L1228,1796 L1226,1796 L1226,1797 L1225,1797 L1225,1798 L1223,1798 L1223,1799 L1221,1799 L1221,1800 L1220,1800 L1220,1801 L1218,1801 L1218,1802 L1217,1802 L1217,1803 L1215,1803 L1215,1804 L1213,1804 L1213,1805 L1212,1805 L1212,1806 L1210,1806 L1210,1807 L1208,1807 L1208,1808 L1207,1808 L1207,1809 L1205,1809 L1205,1810 L1203,1810 L1203,1811 L1202,1811 L1202,1812 L1200,1812 L1200,1813 L1199,1813 L1199,1814 L1197,1814 L1197,1815 L1195,1815 L1195,1816 L1193,1816 L1193,1817 L1192,1817 L1192,1818 L1190,1818 L1190,1819 L1188,1819 L1188,1820 L1187,1820 L1187,1821 L1185,1821 L1185,1822 L1183,1822 L1183,1823 L1182,1823 L1182,1824 L1180,1824 L1180,1825 L1178,1825 L1178,1826 L1177,1826 L1177,1827 L1175,1827 L1175,1828 L1173,1828 L1173,1829 L1171,1829 L1171,1830 L1170,1830 L1170,1831 L1168,1831 L1168,1832 L1166,1832 L1166,1833 L1165,1833 L1165,1834 L1163,1834 L1163,1835 L1161,1835 L1161,1836 L1159,1836 L1159,1837 L1158,1837 L1158,1838 L1156,1838 L1156,1839 L1154,1839 L1154,1840 L1152,1840 L1152,1841 L1151,1841 L1151,1842 L1149,1842 L1149,1843 L1147,1843 L1147,1844 L1145,1844 L1145,1845 L1144,1845 L1144,1846 L1142,1846 L1142,1847 L1140,1847 L1140,1848 L1138,1848 L1138,1849 L1136,1849 L1136,1850 L1135,1850 L1135,1851 L1133,1851 L1133,1852 L1131,1852 L1131,1853 L1129,1853 L1129,1854 L1127,1854 L1127,1855 L1126,1855 L1126,1856 L1124,1856 L1124,1857 L1122,1857 L1122,1858 L1120,1858 L1120,1859 L1118,1859 L1118,1860 L1117,1860 L1117,1861 L1115,1861 L1115,1862 L1113,1862 L1113,1863 L1111,1863 L1111,1864 L1109,1864 L1109,1865 L1107,1865 L1107,1866 L1106,1866 L1106,1867 L1104,1867 L1104,1868 L1102,1868 L1102,1869 L1100,1869 L1100,1870 L1098,1870 L1098,1871 L1096,1871 L1096,1872 L1094,1872 L1094,1873 L1093,1873 L1093,1874 L1091,1874 L1091,1875 L1089,1875 L1089,1876 L1087,1876 L1087,1877 L1085,1877 L1085,1878 L1083,1878 L1083,1879 L1081,1879 L1081,1880 L1079,1880 L1079,1881 L1078,1881 L1078,1882 L1076,1882 L1076,1883 L1074,1883 L1074,1884 L1072,1884 L1072,1885 L1070,1885 L1070,1886 L1068,1886 L1068,1887 L1066,1887 L1066,1888 L1064,1888 L1064,1889 L1062,1889 L1062,1890 L1060,1890 L1060,1891 L1058,1891 L1058,1892 L1056,1892 L1056,1893 L1055,1893 L1055,1894 L1053,1894 L1053,1895 L1051,1895 L1051,1896 L1049,1896 L1049,1897 L1047,1897 L1047,1898 L1045,1898 L1045,1899 L1043,1899 L1043,1900 L1041,1900 L1041,1901 L1039,1901 L1039,1902 L1037,1902 L1037,1903 L1035,1903 L1035,1904 L1033,1904 L1033,1905 L1031,1905 L1031,1906 L1029,1906 L1029,1907 L1027,1907 L1027,1908 L1025,1908 L1025,1909 L1023,1909 L1023,1910 L1021,1910 L1021,1911 L1019,1911 L1019,1912 L1017,1912 L1017,1913 L1015,1913 L1015,1914 L1013,1914 L1013,1915 L1011,1915 L1011,1916 L1009,1916 L1009,1917 L1007,1917 L1007,1918 L1005,1918 L1005,1919 L1003,1919 L1003,1920 L1001,1920 L1001,1921 L999,1921 L999,1922 L997,1922 L997,1923 L995,1923 L995,1924 L993,1924 L993,1925 L991,1925 L991,1926 L989,1926 L989,1927 L987,1927 L987,1928 L985,1928 L985,1929 L983,1929 L983,1930 L981,1930 L981,1931 L979,1931 L979,1932 L977,1932 L977,1933 L975,1933 L975,1934 L973,1934 L973,1935 L971,1935 L971,1936 L968,1936 L968,1937 L966,1937 L966,1938 L964,1938 L964,1939 L962,1939 L962,1940 L960,1940 L960,1941 L958,1941 L958,1942 L956,1942 L956,1943 L954,1943 L954,1944 L952,1944 L952,1945 L950,1945 L950,1946 L948,1946 L948,1947 L945,1947 L945,1948 L943,1948 L943,1949 L941,1949 L941,1950 L939,1950 L939,1951 L937,1951 L937,1952 L935,1952 L935,1953 L933,1953 L933,1954 L931,1954 L931,1955 L929,1955 L929,1956 L926,1956 L926,1957 L924,1957 L924,1958 L922,1958 L922,1959 L920,1959 L920,1960 L918,1960 L918,1961 L916,1961 L916,1962 L914,1962 L914,1963 L912,1963 L912,1964 L909,1964 L909,1965 L907,1965 L907,1966 L905,1966 L905,1967 L903,1967 L903,1968 L901,1968 L901,1969 L899,1969 L899,1970 L896,1970 L896,1971 L894,1971 L894,1972 L892,1972 L892,1973 L890,1973 L890,1974 L888,1974 L888,1975 L886,1975 L886,1976 L883,1976 L883,1977 L881,1977 L881,1978 L879,1978 L879,1979 L877,1979 L877,1980 L875,1980 L875,1981 L872,1981 L872,1982 L870,1982 L870,1983 L868,1983 L868,1984 L866,1984 L866,1985 L864,1985 L864,1986 L861,1986 L861,1987 L859,1987 L859,1988 L857,1988 L857,1989 L855,1989 L855,1990 L853,1990 L853,1991 L849,1991 L849,1990 L847,1990 L847,1989 L845,1989 L845,1988 L842,1988 L842,1987 L840,1987 L840,1986 L838,1986 L838,1985 L836,1985 L836,1984 L834,1984 L834,1983 L831,1983 L831,1982 L829,1982 L829,1981 L827,1981 L827,1980 L825,1980 L825,1979 L823,1979 L823,1978 L820,1978 L820,1977 L818,1977 L818,1976 L816,1976 L816,1975 L814,1975 L814,1974 L812,1974 L812,1973 L809,1973 L809,1972 L807,1972 L807,1971 L805,1971 L805,1970 L803,1970 L803,1969 L801,1969 L801,1968 L799,1968 L799,1967 L796,1967 L796,1966 L794,1966 L794,1965 L792,1965 L792,1964 L790,1964 L790,1963 L788,1963 L788,1962 L786,1962 L786,1961 L784,1961 L784,1960 L781,1960 L781,1959 L779,1959 L779,1958 L777,1958 L777,1957 L775,1957 L775,1956 L773,1956 L773,1955 L771,1955 L771,1954 L769,1954 L769,1953 L767,1953 L767,1952 L764,1952 L764,1951 L762,1951 L762,1950 L760,1950 L760,1949 L758,1949 L758,1948 L756,1948 L756,1947 L754,1947 L754,1946 L752,1946 L752,1945 L750,1945 L750,1944 L748,1944 L748,1943 L746,1943 L746,1942 L743,1942 L743,1941 L741,1941 L741,1940 L739,1940 L739,1939 L737,1939 L737,1938 L735,1938 L735,1937 L733,1937 L733,1936 L731,1936 L731,1935 L729,1935 L729,1934 L727,1934 L727,1933 L725,1933 L725,1932 L723,1932 L723,1931 L721,1931 L721,1930 L719,1930 L719,1929 L717,1929 L717,1928 L715,1928 L715,1927 L713,1927 L713,1926 L710,1926 L710,1925 L708,1925 L708,1924 L706,1924 L706,1923 L704,1923 L704,1922 L702,1922 L702,1921 L700,1921 L700,1920 L698,1920 L698,1919 L696,1919 L696,1918 L694,1918 L694,1917 L692,1917 L692,1916 L690,1916 L690,1915 L688,1915 L688,1914 L686,1914 L686,1913 L684,1913 L684,1912 L682,1912 L682,1911 L680,1911 L680,1910 L678,1910 L678,1909 L676,1909 L676,1908 L674,1908 L674,1907 L672,1907 L672,1906 L670,1906 L670,1905 L668,1905 L668,1904 L666,1904 L666,1903 L665,1903 L665,1902 L663,1902 L663,1901 L661,1901 L661,1900 L659,1900 L659,1899 L657,1899 L657,1898 L655,1898 L655,1897 L653,1897 L653,1896 L651,1896 L651,1895 L649,1895 L649,1894 L647,1894 L647,1893 L645,1893 L645,1892 L643,1892 L643,1891 L641,1891 L641,1890 L639,1890 L639,1889 L637,1889 L637,1888 L635,1888 L635,1887 L634,1887 L634,1886 L632,1886 L632,1885 L630,1885 L630,1884 L628,1884 L628,1883 L626,1883 L626,1882 L624,1882 L624,1881 L622,1881 L622,1880 L620,1880 L620,1879 L618,1879 L618,1878 L616,1878 L616,1877 L615,1877 L615,1876 L613,1876 L613,1875 L611,1875 L611,1874 L609,1874 L609,1873 L607,1873 L607,1872 L605,1872 L605,1871 L603,1871 L603,1870 L601,1870 L601,1869 L600,1869 L600,1868 L598,1868 L598,1867 L596,1867 L596,1866 L594,1866 L594,1865 L592,1865 L592,1864 L590,1864 L590,1863 L589,1863 L589,1862 L587,1862 L587,1861 L585,1861 L585,1860 L583,1860 L583,1859 L581,1859 L581,1858 L579,1858 L579,1857 L578,1857 L578,1856 L576,1856 L576,1855 L574,1855 L574,1854 L572,1854 L572,1853 L570,1853 L570,1852 L569,1852 L569,1851 L567,1851 L567,1850 L565,1850 L565,1849 L563,1849 L563,1848 L562,1848 L562,1847 L560,1847 L560,1846 L558,1846 L558,1845 L556,1845 L556,1844 L554,1844 L554,1843 L553,1843 L553,1842 L551,1842 L551,1841 L549,1841 L549,1840 L547,1840 L547,1839 L546,1839 L546,1838 L544,1838 L544,1837 L542,1837 L542,1836 L540,1836 L540,1835 L539,1835 L539,1834 L537,1834 L537,1833 L535,1833 L535,1832 L534,1832 L534,1831 L532,1831 L532,1830 L530,1830 L530,1829 L528,1829 L528,1828 L527,1828 L527,1827 L525,1827 L525,1826 L523,1826 L523,1825 L521,1825 L521,1824 L520,1824 L520,1823 L518,1823 L518,1822 L516,1822 L516,1821 L515,1821 L515,1820 L513,1820 L513,1819 L511,1819 L511,1818 L510,1818 L510,1817 L508,1817 L508,1816 L506,1816 L506,1815 L505,1815 L505,1814 L503,1814 L503,1813 L501,1813 L501,1812 L500,1812 L500,1811 L498,1811 L498,1810 L496,1810 L496,1809 L495,1809 L495,1808 L493,1808 L493,1807 L491,1807 L491,1806 L490,1806 L490,1805 L488,1805 L488,1804 L487,1804 L487,1803 L485,1803 L485,1802 L483,1802 L483,1801 L482,1801 L482,1800 L480,1800 L480,1799 L478,1799 L478,1798 L477,1798 L477,1797 L475,1797 L475,1796 L474,1796 L474,1795 L472,1795 L472,1794 L470,1794 L470,1793 L469,1793 L469,1792 L467,1792 L467,1791 L466,1791 L466,1790 L464,1790 L464,1789 L463,1789 L463,1788 L461,1788 L461,1787 L459,1787 L459,1786 L458,1786 L458,1785 L456,1785 L456,1784 L455,1784 L455,1783 L453,1783 L453,1782 L452,1782 L452,1781 L450,1781 L450,1780 L448,1780 L448,1779 L447,1779 L447,1778 L445,1778 L445,1777 L444,1777 L444,1776 L442,1776 L442,1775 L441,1775 L441,1774 L439,1774 L439,1773 L438,1773 L438,1772 L436,1772 L436,1771 L435,1771 L435,1770 L433,1770 L433,1769 L432,1769 L432,1768 L430,1768 L430,1767 L429,1767 L429,1766 L427,1766 L427,1765 L426,1765 L426,1764 L424,1764 L424,1763 L423,1763 L423,1762 L421,1762 L421,1761 L420,1761 L420,1760 L418,1760 L418,1759 L417,1759 L417,1758 L415,1758 L415,1757 L414,1757 L414,1756 L412,1756 L412,1755 L411,1755 L411,1754 L409,1754 L409,1753 L408,1753 L408,1752 L407,1752 L407,1751 L405,1751 L405,1750 L404,1750 L404,1749 L402,1749 L402,1748 L401,1748 L401,1747 L399,1747 L399,1746 L398,1746 L398,1745 L397,1745 L397,1744 L395,1744 L395,1743 L394,1743 L394,1742 L392,1742 L392,1741 L391,1741 L391,1740 L389,1740 L389,1739 L388,1739 L388,1738 L387,1738 L387,1737 L385,1737 L385,1736 L384,1736 L384,1735 L382,1735 L382,1734 L381,1734 L381,1733 L380,1733 L380,1732 L378,1732 L378,1731 L377,1731 L377,1730 L376,1730 L376,1729 L374,1729 L374,1728 L373,1728 L373,1727 L371,1727 L371,1726 L370,1726 L370,1725 L369,1725 L369,1724 L367,1724 L367,1723 L366,1723 L366,1722 L365,1722 L365,1721 L363,1721 L363,1720 L362,1720 L362,1719 L361,1719 L361,1718 L359,1718 L359,1717 L358,1717 L358,1716 L357,1716 L357,1715 L355,1715 L355,1714 L354,1714 L354,1713 L353,1713 L353,1712 L351,1712 L351,1711 L350,1711 L350,1710 L349,1710 L349,1709 L347,1709 L347,1708 L346,1708 L346,1707 L345,1707 L345,1706 L343,1706 L343,1705 L342,1705 L342,1704 L341,1704 L341,1703 L340,1703 L340,1702 L338,1702 L338,1701 L337,1701 L337,1700 L336,1700 L336,1699 L334,1699 L334,1698 L333,1698 L333,1697 L332,1697 L332,1696 L331,1696 L331,1695 L329,1695 L329,1694 L328,1694 L328,1693 L327,1693 L327,1692 L326,1692 L326,1691 L324,1691 L324,1690 L323,1690 L323,1689 L322,1689 L322,1688 L321,1688 L321,1687 L319,1687 L319,1686 L318,1686 L318,1685 L317,1685 L317,1684 L316,1684 L316,1683 L314,1683 L314,1682 L313,1682 L313,1681 L312,1681 L312,1680 L311,1680 L311,1679 L310,1679 L310,1678 L308,1678 L308,1677 L307,1677 L307,1676 L306,1676 L306,1675 L305,1675 L305,1674 L304,1674 L304,1673 L302,1673 L302,1672 L301,1672 L301,1671 L300,1671 L300,1670 L299,1670 L299,1669 L298,1669 L298,1668 L296,1668 L296,1667 L295,1667 L295,1666 L294,1666 L294,1665 L293,1665 L293,1664 L292,1664 L292,1663 L291,1663 L291,1662 L289,1662 L289,1661 L288,1661 L288,1660 L287,1660 L287,1659 L286,1659 L286,1658 L285,1658 L285,1657 L284,1657 L284,1656 L283,1656 L283,1655 L281,1655 L281,1654 L280,1654 L280,1653 L279,1653 L279,1652 L278,1652 L278,1651 L277,1651 L277,1650 L276,1650 L276,1649 L275,1649 L275,1648 L273,1648 L273,1647 L272,1647 L272,1646 L271,1646 L271,1645 L270,1645 L270,1644 L269,1644 L269,1643 L268,1643 L268,1642 L267,1642 L267,1641 L266,1641 L266,1640 L265,1640 L265,1639 L264,1639 L264,1638 L262,1638 L262,1637 L261,1637 L261,1636 L260,1636 L260,1635 L259,1635 L259,1634 L258,1634 L258,1633 L257,1633 L257,1632 L256,1632 L256,1631 L255,1631 L255,1630 L254,1630 L254,1629 L253,1629 L253,1628 L252,1628 L252,1627 L251,1627 L251,1626 L250,1626 L250,1625 L249,1625 L249,1624 L248,1624 L248,1623 L247,1623 L247,1622 L245,1622 L245,1621 L244,1621 L244,1620 L243,1620 L243,1619 L242,1619 L242,1618 L241,1618 L241,1617 L240,1617 L240,1616 L239,1616 L239,1615 L238,1615 L238,1614 L237,1614 L237,1613 L236,1613 L236,1612 L235,1612 L235,1611 L234,1611 L234,1610 L233,1610 L233,1609 L232,1609 L232,1608 L231,1608 L231,1607 L230,1607 L230,1606 L229,1606 L229,1605 L228,1605 L228,1604 L227,1604 L227,1603 L226,1603 L226,1602 L225,1602 L225,1601 L224,1601 L224,1600 L223,1600 L223,1599 L222,1599 L222,1598 L221,1598 L221,1597 L220,1597 L220,1596 L219,1596 L219,1595 L218,1595 L218,1594 L217,1594 L217,1593 L216,1593 L216,1592 L215,1592 L215,1590 L214,1590 L214,1589 L213,1589 L213,1588 L212,1588 L212,1587 L211,1587 L211,1586 L210,1586 L210,1585 L209,1585 L209,1584 L208,1584 L208,1583 L207,1583 L207,1582 L206,1582 L206,1581 L205,1581 L205,1580 L204,1580 L204,1579 L203,1579 L203,1578 L202,1578 L202,1577 L201,1577 L201,1576 L200,1576 L200,1574 L199,1574 L199,1573 L198,1573 L198,1572 L197,1572 L197,1571 L196,1571 L196,1570 L195,1570 L195,1569 L194,1569 L194,1568 L193,1568 L193,1567 L192,1567 L192,1566 L191,1566 L191,1564 L190,1564 L190,1563 L189,1563 L189,1562 L188,1562 L188,1561 L187,1561 L187,1560 L186,1560 L186,1559 L185,1559 L185,1558 L184,1558 L184,1556 L183,1556 L183,1555 L182,1555 L182,1554 L181,1554 L181,1553 L180,1553 L180,1552 L179,1552 L179,1551 L178,1551 L178,1549 L177,1549 L177,1548 L176,1548 L176,1547 L175,1547 L175,1546 L174,1546 L174,1545 L173,1545 L173,1543 L172,1543 L172,1542 L171,1542 L171,1541 L170,1541 L170,1540 L169,1540 L169,1539 L168,1539 L168,1537 L167,1537 L167,1536 L166,1536 L166,1535 L165,1535 L165,1534 L164,1534 L164,1532 L163,1532 L163,1531 L162,1531 L162,1530 L161,1530 L161,1529 L160,1529 L160,1527 L159,1527 L159,1526 L158,1526 L158,1525 L157,1525 L157,1524 L156,1524 L156,1522 L155,1522 L155,1521 L154,1521 L154,1520 L153,1520 L153,1518 L152,1518 L152,1517 L151,1517 L151,1516 L150,1516 L150,1515 L149,1515 L149,1513 L148,1513 L148,1512 L147,1512 L147,1511 L146,1511 L146,1509 L145,1509 L145,1508 L144,1508 L144,1507 L143,1507 L143,1505 L142,1505 L142,1504 L141,1504 L141,1503 L140,1503 L140,1501 L139,1501 L139,1500 L138,1500 L138,1498 L137,1498 L137,1497 L136,1497 L136,1496 L135,1496 L135,1494 L134,1494 L134,1493 L133,1493 L133,1491 L132,1491 L132,1490 L131,1490 L131,1488 L130,1488 L130,1487 L129,1487 L129,1485 L128,1485 L128,1484 L127,1484 L127,1482 L126,1482 L126,1481 L125,1481 L125,1479 L124,1479 L124,1478 L123,1478 L123,1476 L122,1476 L122,1475 L121,1475 L121,1473 L120,1473 L120,1472 L119,1472 L119,1470 L118,1470 L118,1469 L117,1469 L117,1467 L116,1467 L116,1465 L115,1465 L115,1464 L114,1464 L114,1462 L113,1462 L113,1460 L112,1460 L112,1459 L111,1459 L111,1457 L110,1457 L110,1455 L109,1455 L109,1454 L108,1454 L108,1452 L107,1452 L107,1450 L106,1450 L106,1448 L105,1448 L105,1447 L104,1447 L104,1445 L103,1445 L103,1443 L102,1443 L102,1441 L101,1441 L101,1440 L100,1440 L100,1438 L99,1438 L99,1436 L98,1436 L98,1434 L97,1434 L97,1432 L96,1432 L96,1430 L95,1430 L95,1428 L94,1428 L94,1426 L93,1426 L93,1424 L92,1424 L92,1422 L91,1422 L91,1420 L90,1420 L90,1418 L89,1418 L89,1416 L88,1416 L88,1414 L87,1414 L87,1412 L86,1412 L86,1410 L85,1410 L85,1408 L84,1408 L84,1406 L83,1406 L83,1404 L82,1404 L82,1401 L81,1401 L81,1399 L80,1399 L80,1397 L79,1397 L79,1395 L78,1395 L78,1392 L77,1392 L77,1390 L76,1390 L76,1388 L75,1388 L75,1386 L74,1386 L74,1383 L73,1383 L73,1381 L72,1381 L72,1378 L71,1378 L71,1376 L70,1376 L70,1373 L69,1373 L69,1371 L68,1371 L68,1368 L67,1368 L67,1366 L66,1366 L66,1363 L65,1363 L65,1360 L64,1360 L64,1358 L63,1358 L63,1355 L62,1355 L62,1352 L61,1352 L61,1350 L60,1350 L60,1347 L59,1347 L59,1344 L58,1344 L58,1341 L57,1341 L57,1338 L56,1338 L56,1335 L55,1335 L55,1332 L54,1332 L54,1329 L53,1329 L53,1325 L52,1325 L52,1322 L51,1322 L51,1319 L50,1319 L50,1316 L49,1316 L49,1312 L48,1312 L48,1309 L47,1309 L47,1305 L46,1305 L46,1302 L45,1302 L45,1298 L44,1298 L44,1295 L43,1295 L43,1291 L42,1291 L42,1287 L41,1287 L41,1283 L40,1283 L40,1279 L39,1279 L39,1275 L38,1275 L38,1271 L37,1271 L37,1267 L36,1267 L36,1262 L35,1262 L35,1258 L34,1258 L34,1254 L33,1254 L33,1249 L32,1249 L32,1244 L31,1244 L31,1239 L30,1239 L30,1234 L29,1234 L29,1229 L28,1229 L28,1224 L27,1224 L27,1218 L26,1218 L26,1213 L25,1213 L25,1207 L24,1207 L24,1201 L23,1201 L23,1195 L22,1195 L22,1188 L21,1188 L21,1181 L20,1181 L20,1175 L19,1175 L19,1167 L18,1167 L18,1160 L17,1160 L17,1152 L16,1152 L16,1143 L15,1143 L15,1135 L14,1135 L14,1125 L13,1125 L13,1116 L12,1116 L12,1105 L11,1105 L11,1094 L10,1094 L10,1082 L9,1082 L9,1069 L8,1069 L8,1055 L7,1055 L7,1039 L6,1039 L6,1022 L5,1022 L5,1001 L4,1001 L4,978 L3,978 L3,949 L2,949 L2,911 L1,911 L1,859 L0,859 L0,787 L-1,787 L-1,699 L-2,699 L-2,568 L-3,568 L-3,272 L-2,272 L-2,143 L-1,143 L-1,60 L0,60 Z M6,3 L6,80 L5,80 L5,154 L4,154 L4,268 L3,268 L3,566 L4,566 L4,670 L5,670 L5,755 L6,755 L6,853 L7,853 L7,899 L8,899 L8,952 L9,952 L9,969 L10,969 L10,990 L11,990 L11,1018 L12,1018 L12,1032 L13,1032 L13,1055 L14,1055 L14,1070 L15,1070 L15,1078 L16,1078 L16,1091 L17,1091 L17,1100 L18,1100 L18,1115 L19,1115 L19,1121 L20,1121 L20,1131 L21,1131 L21,1142 L22,1142 L22,1148 L23,1148 L23,1159 L24,1159 L24,1164 L25,1164 L25,1174 L26,1174 L26,1181 L27,1181 L27,1188 L28,1188 L28,1192 L29,1192 L29,1197 L30,1197 L30,1203 L31,1203 L31,1209 L32,1209 L32,1215 L33,1215 L33,1222 L34,1222 L34,1227 L35,1227 L35,1231 L36,1231 L36,1236 L37,1236 L37,1241 L38,1241 L38,1246 L39,1246 L39,1252 L40,1252 L40,1257 L41,1257 L41,1261 L42,1261 L42,1264 L43,1264 L43,1268 L44,1268 L44,1274 L45,1274 L45,1278 L46,1278 L46,1282 L47,1282 L47,1286 L48,1286 L48,1290 L49,1290 L49,1292 L50,1292 L50,1296 L51,1296 L51,1301 L52,1301 L52,1303 L53,1303 L53,1308 L54,1308 L54,1310 L55,1310 L55,1313 L56,1313 L56,1317 L57,1317 L57,1320 L58,1320 L58,1323 L59,1323 L59,1326 L60,1326 L60,1329 L61,1329 L61,1332 L62,1332 L62,1335 L63,1335 L63,1338 L64,1338 L64,1341 L65,1341 L65,1344 L66,1344 L66,1347 L67,1347 L67,1350 L68,1350 L68,1353 L69,1353 L69,1355 L70,1355 L70,1358 L71,1358 L71,1361 L72,1361 L72,1363 L73,1363 L73,1366 L74,1366 L74,1369 L75,1369 L75,1371 L76,1371 L76,1374 L77,1374 L77,1376 L78,1376 L78,1379 L79,1379 L79,1381 L80,1381 L80,1383 L81,1383 L81,1386 L82,1386 L82,1388 L83,1388 L83,1390 L84,1390 L84,1393 L85,1393 L85,1395 L86,1395 L86,1397 L87,1397 L87,1399 L88,1399 L88,1402 L89,1402 L89,1404 L90,1404 L90,1406 L91,1406 L91,1408 L92,1408 L92,1410 L93,1410 L93,1412 L94,1412 L94,1414 L95,1414 L95,1416 L96,1416 L96,1418 L97,1418 L97,1420 L98,1420 L98,1422 L99,1422 L99,1424 L100,1424 L100,1426 L101,1426 L101,1428 L102,1428 L102,1430 L103,1430 L103,1432 L104,1432 L104,1434 L105,1434 L105,1435 L106,1435 L106,1437 L107,1437 L107,1439 L108,1439 L108,1441 L109,1441 L109,1443 L110,1443 L110,1444 L111,1444 L111,1446 L112,1446 L112,1448 L113,1448 L113,1450 L114,1450 L114,1451 L115,1451 L115,1453 L116,1453 L116,1455 L117,1455 L117,1456 L118,1456 L118,1458 L119,1458 L119,1460 L120,1460 L120,1461 L121,1461 L121,1463 L122,1463 L122,1465 L123,1465 L123,1466 L124,1466 L124,1468 L125,1468 L125,1469 L126,1469 L126,1471 L127,1471 L127,1472 L128,1472 L128,1474 L129,1474 L129,1476 L130,1476 L130,1477 L131,1477 L131,1479 L132,1479 L132,1480 L133,1480 L133,1482 L134,1482 L134,1483 L135,1483 L135,1484 L136,1484 L136,1486 L137,1486 L137,1487 L138,1487 L138,1489 L139,1489 L139,1490 L140,1490 L140,1492 L141,1492 L141,1493 L142,1493 L142,1494 L143,1494 L143,1496 L144,1496 L144,1497 L145,1497 L145,1499 L146,1499 L146,1500 L147,1500 L147,1501 L148,1501 L148,1503 L149,1503 L149,1504 L150,1504 L150,1505 L151,1505 L151,1507 L152,1507 L152,1508 L153,1508 L153,1509 L154,1509 L154,1511 L155,1511 L155,1512 L156,1512 L156,1513 L157,1513 L157,1515 L158,1515 L158,1516 L159,1516 L159,1517 L160,1517 L160,1518 L161,1518 L161,1520 L162,1520 L162,1521 L163,1521 L163,1522 L164,1522 L164,1523 L165,1523 L165,1525 L166,1525 L166,1526 L167,1526 L167,1527 L168,1527 L168,1529 L169,1529 L169,1530 L170,1530 L170,1531 L171,1531 L171,1532 L172,1532 L172,1533 L173,1533 L173,1535 L174,1535 L174,1536 L175,1536 L175,1537 L176,1537 L176,1538 L177,1538 L177,1539 L178,1539 L178,1541 L179,1541 L179,1542 L180,1542 L180,1543 L181,1543 L181,1544 L182,1544 L182,1545 L183,1545 L183,1547 L184,1547 L184,1548 L185,1548 L185,1549 L186,1549 L186,1550 L187,1550 L187,1551 L188,1551 L188,1552 L189,1552 L189,1554 L190,1554 L190,1555 L191,1555 L191,1556 L192,1556 L192,1557 L193,1557 L193,1558 L194,1558 L194,1559 L195,1559 L195,1560 L196,1560 L196,1562 L197,1562 L197,1563 L198,1563 L198,1564 L199,1564 L199,1565 L200,1565 L200,1566 L201,1566 L201,1567 L202,1567 L202,1568 L203,1568 L203,1569 L204,1569 L204,1570 L205,1570 L205,1572 L206,1572 L206,1573 L207,1573 L207,1574 L208,1574 L208,1575 L209,1575 L209,1576 L210,1576 L210,1577 L211,1577 L211,1578 L212,1578 L212,1579 L213,1579 L213,1580 L214,1580 L214,1581 L215,1581 L215,1582 L216,1582 L216,1583 L217,1583 L217,1584 L218,1584 L218,1585 L219,1585 L219,1587 L220,1587 L220,1588 L221,1588 L221,1589 L222,1589 L222,1590 L223,1590 L223,1591 L224,1591 L224,1592 L225,1592 L225,1593 L226,1593 L226,1594 L227,1594 L227,1595 L228,1595 L228,1596 L229,1596 L229,1597 L230,1597 L230,1598 L231,1598 L231,1599 L232,1599 L232,1600 L233,1600 L233,1601 L234,1601 L234,1602 L235,1602 L235,1603 L236,1603 L236,1604 L237,1604 L237,1605 L238,1605 L238,1606 L239,1606 L239,1607 L240,1607 L240,1608 L241,1608 L241,1609 L242,1609 L242,1610 L243,1610 L243,1611 L244,1611 L244,1612 L245,1612 L245,1613 L246,1613 L246,1614 L247,1614 L247,1615 L248,1615 L248,1616 L249,1616 L249,1617 L250,1617 L250,1618 L252,1618 L252,1619 L253,1619 L253,1620 L254,1620 L254,1621 L255,1621 L255,1622 L256,1622 L256,1623 L257,1623 L257,1624 L258,1624 L258,1625 L259,1625 L259,1626 L260,1626 L260,1627 L261,1627 L261,1628 L262,1628 L262,1629 L263,1629 L263,1630 L264,1630 L264,1631 L265,1631 L265,1632 L266,1632 L266,1633 L268,1633 L268,1634 L269,1634 L269,1635 L270,1635 L270,1636 L271,1636 L271,1637 L272,1637 L272,1638 L273,1638 L273,1639 L274,1639 L274,1640 L275,1640 L275,1641 L276,1641 L276,1642 L277,1642 L277,1643 L279,1643 L279,1644 L280,1644 L280,1645 L281,1645 L281,1646 L282,1646 L282,1647 L283,1647 L283,1648 L284,1648 L284,1649 L285,1649 L285,1650 L286,1650 L286,1651 L288,1651 L288,1652 L289,1652 L289,1653 L290,1653 L290,1654 L291,1654 L291,1655 L292,1655 L292,1656 L293,1656 L293,1657 L294,1657 L294,1658 L296,1658 L296,1659 L297,1659 L297,1660 L298,1660 L298,1661 L299,1661 L299,1662 L300,1662 L300,1663 L302,1663 L302,1664 L303,1664 L303,1665 L304,1665 L304,1666 L305,1666 L305,1667 L306,1667 L306,1668 L307,1668 L307,1669 L309,1669 L309,1670 L310,1670 L310,1671 L311,1671 L311,1672 L312,1672 L312,1673 L313,1673 L313,1674 L315,1674 L315,1675 L316,1675 L316,1676 L317,1676 L317,1677 L318,1677 L318,1678 L320,1678 L320,1679 L321,1679 L321,1680 L322,1680 L322,1681 L323,1681 L323,1682 L325,1682 L325,1683 L326,1683 L326,1684 L327,1684 L327,1685 L328,1685 L328,1686 L329,1686 L329,1687 L331,1687 L331,1688 L332,1688 L332,1689 L333,1689 L333,1690 L335,1690 L335,1691 L336,1691 L336,1692 L337,1692 L337,1693 L338,1693 L338,1694 L340,1694 L340,1695 L341,1695 L341,1696 L342,1696 L342,1697 L343,1697 L343,1698 L345,1698 L345,1699 L346,1699 L346,1700 L347,1700 L347,1701 L349,1701 L349,1702 L350,1702 L350,1703 L351,1703 L351,1704 L353,1704 L353,1705 L354,1705 L354,1706 L355,1706 L355,1707 L356,1707 L356,1708 L358,1708 L358,1709 L359,1709 L359,1710 L360,1710 L360,1711 L362,1711 L362,1712 L363,1712 L363,1713 L364,1713 L364,1714 L366,1714 L366,1715 L367,1715 L367,1716 L368,1716 L368,1717 L370,1717 L370,1718 L371,1718 L371,1719 L373,1719 L373,1720 L374,1720 L374,1721 L375,1721 L375,1722 L377,1722 L377,1723 L378,1723 L378,1724 L379,1724 L379,1725 L381,1725 L381,1726 L382,1726 L382,1727 L384,1727 L384,1728 L385,1728 L385,1729 L386,1729 L386,1730 L388,1730 L388,1731 L389,1731 L389,1732 L390,1732 L390,1733 L392,1733 L392,1734 L393,1734 L393,1735 L395,1735 L395,1736 L396,1736 L396,1737 L398,1737 L398,1738 L399,1738 L399,1739 L400,1739 L400,1740 L402,1740 L402,1741 L403,1741 L403,1742 L405,1742 L405,1743 L406,1743 L406,1744 L408,1744 L408,1745 L409,1745 L409,1746 L410,1746 L410,1747 L412,1747 L412,1748 L413,1748 L413,1749 L415,1749 L415,1750 L416,1750 L416,1751 L418,1751 L418,1752 L419,1752 L419,1753 L421,1753 L421,1754 L422,1754 L422,1755 L424,1755 L424,1756 L425,1756 L425,1757 L427,1757 L427,1758 L428,1758 L428,1759 L430,1759 L430,1760 L431,1760 L431,1761 L433,1761 L433,1762 L434,1762 L434,1763 L436,1763 L436,1764 L437,1764 L437,1765 L439,1765 L439,1766 L440,1766 L440,1767 L442,1767 L442,1768 L443,1768 L443,1769 L445,1769 L445,1770 L446,1770 L446,1771 L448,1771 L448,1772 L449,1772 L449,1773 L451,1773 L451,1774 L452,1774 L452,1775 L454,1775 L454,1776 L456,1776 L456,1777 L457,1777 L457,1778 L459,1778 L459,1779 L460,1779 L460,1780 L462,1780 L462,1781 L463,1781 L463,1782 L465,1782 L465,1783 L466,1783 L466,1784 L468,1784 L468,1785 L470,1785 L470,1786 L471,1786 L471,1787 L473,1787 L473,1788 L474,1788 L474,1789 L476,1789 L476,1790 L478,1790 L478,1791 L479,1791 L479,1792 L481,1792 L481,1793 L482,1793 L482,1794 L484,1794 L484,1795 L486,1795 L486,1796 L487,1796 L487,1797 L489,1797 L489,1798 L491,1798 L491,1799 L492,1799 L492,1800 L494,1800 L494,1801 L495,1801 L495,1802 L497,1802 L497,1803 L499,1803 L499,1804 L500,1804 L500,1805 L502,1805 L502,1806 L504,1806 L504,1807 L505,1807 L505,1808 L507,1808 L507,1809 L509,1809 L509,1810 L510,1810 L510,1811 L512,1811 L512,1812 L514,1812 L514,1813 L515,1813 L515,1814 L517,1814 L517,1815 L519,1815 L519,1816 L520,1816 L520,1817 L522,1817 L522,1818 L524,1818 L524,1819 L525,1819 L525,1820 L527,1820 L527,1821 L529,1821 L529,1822 L531,1822 L531,1823 L532,1823 L532,1824 L534,1824 L534,1825 L536,1825 L536,1826 L537,1826 L537,1827 L539,1827 L539,1828 L541,1828 L541,1829 L543,1829 L543,1830 L544,1830 L544,1831 L546,1831 L546,1832 L548,1832 L548,1833 L550,1833 L550,1834 L551,1834 L551,1835 L553,1835 L553,1836 L555,1836 L555,1837 L557,1837 L557,1838 L558,1838 L558,1839 L560,1839 L560,1840 L562,1840 L562,1841 L563,1841 L563,1842 L566,1842 L566,1843 L567,1843 L567,1844 L569,1844 L569,1845 L571,1845 L571,1846 L573,1846 L573,1847 L574,1847 L574,1848 L576,1848 L576,1849 L578,1849 L578,1850 L580,1850 L580,1851 L582,1851 L582,1852 L584,1852 L584,1853 L585,1853 L585,1854 L587,1854 L587,1855 L589,1855 L589,1856 L591,1856 L591,1857 L593,1857 L593,1858 L595,1858 L595,1859 L596,1859 L596,1860 L598,1860 L598,1861 L600,1861 L600,1862 L602,1862 L602,1863 L604,1863 L604,1864 L606,1864 L606,1865 L607,1865 L607,1866 L609,1866 L609,1867 L611,1867 L611,1868 L613,1868 L613,1869 L615,1869 L615,1870 L617,1870 L617,1871 L619,1871 L619,1872 L621,1872 L621,1873 L622,1873 L622,1874 L624,1874 L624,1875 L626,1875 L626,1876 L628,1876 L628,1877 L630,1877 L630,1878 L632,1878 L632,1879 L634,1879 L634,1880 L636,1880 L636,1881 L638,1881 L638,1882 L639,1882 L639,1883 L641,1883 L641,1884 L643,1884 L643,1885 L645,1885 L645,1886 L647,1886 L647,1887 L649,1887 L649,1888 L651,1888 L651,1889 L653,1889 L653,1890 L655,1890 L655,1891 L657,1891 L657,1892 L659,1892 L659,1893 L661,1893 L661,1894 L663,1894 L663,1895 L665,1895 L665,1896 L667,1896 L667,1897 L669,1897 L669,1898 L671,1898 L671,1899 L673,1899 L673,1900 L675,1900 L675,1901 L677,1901 L677,1902 L678,1902 L678,1903 L680,1903 L680,1904 L682,1904 L682,1905 L684,1905 L684,1906 L686,1906 L686,1907 L688,1907 L688,1908 L690,1908 L690,1909 L692,1909 L692,1910 L694,1910 L694,1911 L696,1911 L696,1912 L698,1912 L698,1913 L700,1913 L700,1914 L702,1914 L702,1915 L704,1915 L704,1916 L706,1916 L706,1917 L708,1917 L708,1918 L710,1918 L710,1919 L713,1919 L713,1920 L715,1920 L715,1921 L717,1921 L717,1922 L719,1922 L719,1923 L721,1923 L721,1924 L723,1924 L723,1925 L725,1925 L725,1926 L727,1926 L727,1927 L729,1927 L729,1928 L731,1928 L731,1929 L733,1929 L733,1930 L735,1930 L735,1931 L737,1931 L737,1932 L739,1932 L739,1933 L741,1933 L741,1934 L743,1934 L743,1935 L746,1935 L746,1936 L748,1936 L748,1937 L750,1937 L750,1938 L752,1938 L752,1939 L754,1939 L754,1940 L756,1940 L756,1941 L758,1941 L758,1942 L760,1942 L760,1943 L762,1943 L762,1944 L764,1944 L764,1945 L766,1945 L766,1946 L769,1946 L769,1947 L771,1947 L771,1948 L773,1948 L773,1949 L775,1949 L775,1950 L777,1950 L777,1951 L779,1951 L779,1952 L781,1952 L781,1953 L783,1953 L783,1954 L786,1954 L786,1955 L788,1955 L788,1956 L790,1956 L790,1957 L792,1957 L792,1958 L794,1958 L794,1959 L796,1959 L796,1960 L798,1960 L798,1961 L801,1961 L801,1962 L803,1962 L803,1963 L805,1963 L805,1964 L807,1964 L807,1965 L809,1965 L809,1966 L811,1966 L811,1967 L814,1967 L814,1968 L816,1968 L816,1969 L818,1969 L818,1970 L820,1970 L820,1971 L822,1971 L822,1972 L825,1972 L825,1973 L827,1973 L827,1974 L829,1974 L829,1975 L831,1975 L831,1976 L833,1976 L833,1977 L836,1977 L836,1978 L838,1978 L838,1979 L840,1979 L840,1980 L842,1980 L842,1981 L844,1981 L844,1982 L847,1982 L847,1983 L849,1983 L849,1984 L853,1984 L853,1983 L855,1983 L855,1982 L857,1982 L857,1981 L859,1981 L859,1980 L862,1980 L862,1979 L864,1979 L864,1978 L866,1978 L866,1977 L868,1977 L868,1976 L870,1976 L870,1975 L873,1975 L873,1974 L875,1974 L875,1973 L877,1973 L877,1972 L879,1972 L879,1971 L881,1971 L881,1970 L883,1970 L883,1969 L886,1969 L886,1968 L888,1968 L888,1967 L890,1967 L890,1966 L892,1966 L892,1965 L894,1965 L894,1964 L896,1964 L896,1963 L899,1963 L899,1962 L901,1962 L901,1961 L903,1961 L903,1960 L905,1960 L905,1959 L907,1959 L907,1958 L909,1958 L909,1957 L912,1957 L912,1956 L914,1956 L914,1955 L916,1955 L916,1954 L918,1954 L918,1953 L920,1953 L920,1952 L922,1952 L922,1951 L924,1951 L924,1950 L926,1950 L926,1949 L929,1949 L929,1948 L931,1948 L931,1947 L933,1947 L933,1946 L935,1946 L935,1945 L937,1945 L937,1944 L939,1944 L939,1943 L941,1943 L941,1942 L943,1942 L943,1941 L945,1941 L945,1940 L948,1940 L948,1939 L950,1939 L950,1938 L952,1938 L952,1937 L954,1937 L954,1936 L956,1936 L956,1935 L958,1935 L958,1934 L960,1934 L960,1933 L962,1933 L962,1932 L964,1932 L964,1931 L966,1931 L966,1930 L968,1930 L968,1929 L970,1929 L970,1928 L973,1928 L973,1927 L975,1927 L975,1926 L977,1926 L977,1925 L979,1925 L979,1924 L981,1924 L981,1923 L983,1923 L983,1922 L985,1922 L985,1921 L987,1921 L987,1920 L989,1920 L989,1919 L991,1919 L991,1918 L993,1918 L993,1917 L995,1917 L995,1916 L997,1916 L997,1915 L999,1915 L999,1914 L1001,1914 L1001,1913 L1003,1913 L1003,1912 L1005,1912 L1005,1911 L1007,1911 L1007,1910 L1009,1910 L1009,1909 L1011,1909 L1011,1908 L1013,1908 L1013,1907 L1015,1907 L1015,1906 L1017,1906 L1017,1905 L1019,1905 L1019,1904 L1021,1904 L1021,1903 L1023,1903 L1023,1902 L1025,1902 L1025,1901 L1027,1901 L1027,1900 L1029,1900 L1029,1899 L1031,1899 L1031,1898 L1033,1898 L1033,1897 L1035,1897 L1035,1896 L1037,1896 L1037,1895 L1039,1895 L1039,1894 L1041,1894 L1041,1893 L1043,1893 L1043,1892 L1045,1892 L1045,1891 L1047,1891 L1047,1890 L1049,1890 L1049,1889 L1050,1889 L1050,1888 L1052,1888 L1052,1887 L1054,1887 L1054,1886 L1056,1886 L1056,1885 L1058,1885 L1058,1884 L1060,1884 L1060,1883 L1062,1883 L1062,1882 L1064,1882 L1064,1881 L1066,1881 L1066,1880 L1068,1880 L1068,1879 L1070,1879 L1070,1878 L1072,1878 L1072,1877 L1074,1877 L1074,1876 L1075,1876 L1075,1875 L1077,1875 L1077,1874 L1079,1874 L1079,1873 L1081,1873 L1081,1872 L1083,1872 L1083,1871 L1085,1871 L1085,1870 L1087,1870 L1087,1869 L1088,1869 L1088,1868 L1090,1868 L1090,1867 L1092,1867 L1092,1866 L1094,1866 L1094,1865 L1096,1865 L1096,1864 L1098,1864 L1098,1863 L1100,1863 L1100,1862 L1102,1862 L1102,1861 L1103,1861 L1103,1860 L1105,1860 L1105,1859 L1107,1859 L1107,1858 L1109,1858 L1109,1857 L1111,1857 L1111,1856 L1113,1856 L1113,1855 L1114,1855 L1114,1854 L1116,1854 L1116,1853 L1118,1853 L1118,1852 L1120,1852 L1120,1851 L1122,1851 L1122,1850 L1123,1850 L1123,1849 L1125,1849 L1125,1848 L1127,1848 L1127,1847 L1129,1847 L1129,1846 L1131,1846 L1131,1845 L1133,1845 L1133,1844 L1134,1844 L1134,1843 L1136,1843 L1136,1842 L1138,1842 L1138,1841 L1139,1841 L1139,1840 L1141,1840 L1141,1839 L1143,1839 L1143,1838 L1145,1838 L1145,1837 L1147,1837 L1147,1836 L1148,1836 L1148,1835 L1150,1835 L1150,1834 L1152,1834 L1152,1833 L1154,1833 L1154,1832 L1155,1832 L1155,1831 L1157,1831 L1157,1830 L1159,1830 L1159,1829 L1161,1829 L1161,1828 L1162,1828 L1162,1827 L1164,1827 L1164,1826 L1166,1826 L1166,1825 L1167,1825 L1167,1824 L1169,1824 L1169,1823 L1171,1823 L1171,1822 L1173,1822 L1173,1821 L1174,1821 L1174,1820 L1176,1820 L1176,1819 L1178,1819 L1178,1818 L1179,1818 L1179,1817 L1181,1817 L1181,1816 L1183,1816 L1183,1815 L1184,1815 L1184,1814 L1186,1814 L1186,1813 L1188,1813 L1188,1812 L1189,1812 L1189,1811 L1191,1811 L1191,1810 L1193,1810 L1193,1809 L1195,1809 L1195,1808 L1196,1808 L1196,1807 L1198,1807 L1198,1806 L1199,1806 L1199,1805 L1201,1805 L1201,1804 L1203,1804 L1203,1803 L1204,1803 L1204,1802 L1206,1802 L1206,1801 L1208,1801 L1208,1800 L1209,1800 L1209,1799 L1211,1799 L1211,1798 L1213,1798 L1213,1797 L1214,1797 L1214,1796 L1216,1796 L1216,1795 L1217,1795 L1217,1794 L1219,1794 L1219,1793 L1221,1793 L1221,1792 L1222,1792 L1222,1791 L1224,1791 L1224,1790 L1225,1790 L1225,1789 L1227,1789 L1227,1788 L1229,1788 L1229,1787 L1230,1787 L1230,1786 L1232,1786 L1232,1785 L1233,1785 L1233,1784 L1235,1784 L1235,1783 L1237,1783 L1237,1782 L1238,1782 L1238,1781 L1240,1781 L1240,1780 L1241,1780 L1241,1779 L1243,1779 L1243,1778 L1244,1778 L1244,1777 L1246,1777 L1246,1776 L1248,1776 L1248,1775 L1249,1775 L1249,1774 L1251,1774 L1251,1773 L1252,1773 L1252,1772 L1254,1772 L1254,1771 L1255,1771 L1255,1770 L1257,1770 L1257,1769 L1258,1769 L1258,1768 L1260,1768 L1260,1767 L1261,1767 L1261,1766 L1263,1766 L1263,1765 L1264,1765 L1264,1764 L1266,1764 L1266,1763 L1267,1763 L1267,1762 L1269,1762 L1269,1761 L1270,1761 L1270,1760 L1272,1760 L1272,1759 L1273,1759 L1273,1758 L1275,1758 L1275,1757 L1276,1757 L1276,1756 L1278,1756 L1278,1755 L1279,1755 L1279,1754 L1281,1754 L1281,1753 L1282,1753 L1282,1752 L1284,1752 L1284,1751 L1285,1751 L1285,1750 L1287,1750 L1287,1749 L1288,1749 L1288,1748 L1290,1748 L1290,1747 L1291,1747 L1291,1746 L1292,1746 L1292,1745 L1294,1745 L1294,1744 L1295,1744 L1295,1743 L1297,1743 L1297,1742 L1298,1742 L1298,1741 L1300,1741 L1300,1740 L1301,1740 L1301,1739 L1302,1739 L1302,1738 L1304,1738 L1304,1737 L1305,1737 L1305,1736 L1307,1736 L1307,1735 L1308,1735 L1308,1734 L1310,1734 L1310,1733 L1311,1733 L1311,1732 L1312,1732 L1312,1731 L1314,1731 L1314,1730 L1315,1730 L1315,1729 L1317,1729 L1317,1728 L1318,1728 L1318,1727 L1319,1727 L1319,1726 L1321,1726 L1321,1725 L1322,1725 L1322,1724 L1323,1724 L1323,1723 L1325,1723 L1325,1722 L1326,1722 L1326,1721 L1328,1721 L1328,1720 L1329,1720 L1329,1719 L1330,1719 L1330,1718 L1332,1718 L1332,1717 L1333,1717 L1333,1716 L1334,1716 L1334,1715 L1336,1715 L1336,1714 L1337,1714 L1337,1713 L1338,1713 L1338,1712 L1340,1712 L1340,1711 L1341,1711 L1341,1710 L1342,1710 L1342,1709 L1344,1709 L1344,1708 L1345,1708 L1345,1707 L1346,1707 L1346,1706 L1348,1706 L1348,1705 L1349,1705 L1349,1704 L1350,1704 L1350,1703 L1352,1703 L1352,1702 L1353,1702 L1353,1701 L1354,1701 L1354,1700 L1355,1700 L1355,1699 L1357,1699 L1357,1698 L1358,1698 L1358,1697 L1359,1697 L1359,1696 L1361,1696 L1361,1695 L1362,1695 L1362,1694 L1363,1694 L1363,1693 L1364,1693 L1364,1692 L1366,1692 L1366,1691 L1367,1691 L1367,1690 L1368,1690 L1368,1689 L1370,1689 L1370,1688 L1371,1688 L1371,1687 L1372,1687 L1372,1686 L1373,1686 L1373,1685 L1375,1685 L1375,1684 L1376,1684 L1376,1683 L1377,1683 L1377,1682 L1378,1682 L1378,1681 L1379,1681 L1379,1680 L1381,1680 L1381,1679 L1382,1679 L1382,1678 L1383,1678 L1383,1677 L1384,1677 L1384,1676 L1386,1676 L1386,1675 L1387,1675 L1387,1674 L1388,1674 L1388,1673 L1389,1673 L1389,1672 L1390,1672 L1390,1671 L1392,1671 L1392,1670 L1393,1670 L1393,1669 L1394,1669 L1394,1668 L1395,1668 L1395,1667 L1396,1667 L1396,1666 L1398,1666 L1398,1665 L1399,1665 L1399,1664 L1400,1664 L1400,1663 L1401,1663 L1401,1662 L1402,1662 L1402,1661 L1404,1661 L1404,1660 L1405,1660 L1405,1659 L1406,1659 L1406,1658 L1407,1658 L1407,1657 L1408,1657 L1408,1656 L1409,1656 L1409,1655 L1411,1655 L1411,1654 L1412,1654 L1412,1653 L1413,1653 L1413,1652 L1414,1652 L1414,1651 L1415,1651 L1415,1650 L1416,1650 L1416,1649 L1417,1649 L1417,1648 L1418,1648 L1418,1647 L1420,1647 L1420,1646 L1421,1646 L1421,1645 L1422,1645 L1422,1644 L1423,1644 L1423,1643 L1424,1643 L1424,1642 L1425,1642 L1425,1641 L1426,1641 L1426,1640 L1427,1640 L1427,1639 L1429,1639 L1429,1638 L1430,1638 L1430,1637 L1431,1637 L1431,1636 L1432,1636 L1432,1635 L1433,1635 L1433,1634 L1434,1634 L1434,1633 L1435,1633 L1435,1632 L1436,1632 L1436,1631 L1437,1631 L1437,1630 L1438,1630 L1438,1629 L1439,1629 L1439,1628 L1440,1628 L1440,1627 L1441,1627 L1441,1626 L1443,1626 L1443,1625 L1444,1625 L1444,1624 L1445,1624 L1445,1623 L1446,1623 L1446,1622 L1447,1622 L1447,1621 L1448,1621 L1448,1620 L1449,1620 L1449,1619 L1450,1619 L1450,1618 L1451,1618 L1451,1617 L1452,1617 L1452,1616 L1453,1616 L1453,1615 L1454,1615 L1454,1614 L1455,1614 L1455,1613 L1456,1613 L1456,1612 L1457,1612 L1457,1611 L1458,1611 L1458,1610 L1459,1610 L1459,1609 L1460,1609 L1460,1608 L1461,1608 L1461,1607 L1462,1607 L1462,1606 L1463,1606 L1463,1605 L1464,1605 L1464,1604 L1465,1604 L1465,1603 L1466,1603 L1466,1602 L1467,1602 L1467,1601 L1468,1601 L1468,1600 L1469,1600 L1469,1599 L1470,1599 L1470,1598 L1471,1598 L1471,1597 L1472,1597 L1472,1596 L1473,1596 L1473,1595 L1474,1595 L1474,1594 L1475,1594 L1475,1593 L1476,1593 L1476,1592 L1477,1592 L1477,1591 L1478,1591 L1478,1590 L1479,1590 L1479,1589 L1480,1589 L1480,1588 L1481,1588 L1481,1587 L1482,1587 L1482,1586 L1483,1586 L1483,1585 L1484,1585 L1484,1584 L1485,1584 L1485,1583 L1486,1583 L1486,1582 L1487,1582 L1487,1581 L1488,1581 L1488,1580 L1489,1580 L1489,1579 L1490,1579 L1490,1577 L1491,1577 L1491,1576 L1492,1576 L1492,1575 L1493,1575 L1493,1574 L1494,1574 L1494,1573 L1495,1573 L1495,1572 L1496,1572 L1496,1571 L1497,1571 L1497,1570 L1498,1570 L1498,1569 L1499,1569 L1499,1568 L1500,1568 L1500,1567 L1501,1567 L1501,1565 L1502,1565 L1502,1564 L1503,1564 L1503,1563 L1504,1563 L1504,1562 L1505,1562 L1505,1561 L1506,1561 L1506,1560 L1507,1560 L1507,1559 L1508,1559 L1508,1558 L1509,1558 L1509,1556 L1510,1556 L1510,1555 L1511,1555 L1511,1554 L1512,1554 L1512,1553 L1513,1553 L1513,1552 L1514,1552 L1514,1551 L1515,1551 L1515,1549 L1516,1549 L1516,1548 L1517,1548 L1517,1547 L1518,1547 L1518,1546 L1519,1546 L1519,1545 L1520,1545 L1520,1544 L1521,1544 L1521,1542 L1522,1542 L1522,1541 L1523,1541 L1523,1540 L1524,1540 L1524,1539 L1525,1539 L1525,1538 L1526,1538 L1526,1536 L1527,1536 L1527,1535 L1528,1535 L1528,1534 L1529,1534 L1529,1533 L1530,1533 L1530,1532 L1531,1532 L1531,1530 L1532,1530 L1532,1529 L1533,1529 L1533,1528 L1534,1528 L1534,1527 L1535,1527 L1535,1525 L1536,1525 L1536,1524 L1537,1524 L1537,1523 L1538,1523 L1538,1521 L1539,1521 L1539,1520 L1540,1520 L1540,1519 L1541,1519 L1541,1518 L1542,1518 L1542,1516 L1543,1516 L1543,1515 L1544,1515 L1544,1514 L1545,1514 L1545,1512 L1546,1512 L1546,1511 L1547,1511 L1547,1510 L1548,1510 L1548,1509 L1549,1509 L1549,1507 L1550,1507 L1550,1506 L1551,1506 L1551,1505 L1552,1505 L1552,1503 L1553,1503 L1553,1502 L1554,1502 L1554,1501 L1555,1501 L1555,1499 L1556,1499 L1556,1498 L1557,1498 L1557,1496 L1558,1496 L1558,1495 L1559,1495 L1559,1494 L1560,1494 L1560,1492 L1561,1492 L1561,1491 L1562,1491 L1562,1489 L1563,1489 L1563,1488 L1564,1488 L1564,1487 L1565,1487 L1565,1485 L1566,1485 L1566,1484 L1567,1484 L1567,1482 L1568,1482 L1568,1481 L1569,1481 L1569,1479 L1570,1479 L1570,1478 L1571,1478 L1571,1476 L1572,1476 L1572,1475 L1573,1475 L1573,1473 L1574,1473 L1574,1472 L1575,1472 L1575,1470 L1576,1470 L1576,1468 L1577,1468 L1577,1467 L1578,1467 L1578,1465 L1579,1465 L1579,1464 L1580,1464 L1580,1462 L1581,1462 L1581,1460 L1582,1460 L1582,1459 L1583,1459 L1583,1457 L1584,1457 L1584,1455 L1585,1455 L1585,1454 L1586,1454 L1586,1452 L1587,1452 L1587,1450 L1588,1450 L1588,1449 L1589,1449 L1589,1447 L1590,1447 L1590,1445 L1591,1445 L1591,1443 L1592,1443 L1592,1442 L1593,1442 L1593,1440 L1594,1440 L1594,1438 L1595,1438 L1595,1436 L1596,1436 L1596,1434 L1597,1434 L1597,1433 L1598,1433 L1598,1431 L1599,1431 L1599,1429 L1600,1429 L1600,1427 L1601,1427 L1601,1425 L1602,1425 L1602,1423 L1603,1423 L1603,1421 L1604,1421 L1604,1419 L1605,1419 L1605,1417 L1606,1417 L1606,1415 L1607,1415 L1607,1413 L1608,1413 L1608,1411 L1609,1411 L1609,1409 L1610,1409 L1610,1407 L1611,1407 L1611,1405 L1612,1405 L1612,1402 L1613,1402 L1613,1400 L1614,1400 L1614,1398 L1615,1398 L1615,1396 L1616,1396 L1616,1394 L1617,1394 L1617,1391 L1618,1391 L1618,1389 L1619,1389 L1619,1387 L1620,1387 L1620,1384 L1621,1384 L1621,1382 L1622,1382 L1622,1380 L1623,1380 L1623,1377 L1624,1377 L1624,1375 L1625,1375 L1625,1372 L1626,1372 L1626,1370 L1627,1370 L1627,1367 L1628,1367 L1628,1365 L1629,1365 L1629,1362 L1630,1362 L1630,1359 L1631,1359 L1631,1357 L1632,1357 L1632,1354 L1633,1354 L1633,1351 L1634,1351 L1634,1349 L1635,1349 L1635,1346 L1636,1346 L1636,1343 L1637,1343 L1637,1340 L1638,1340 L1638,1337 L1639,1337 L1639,1334 L1640,1334 L1640,1331 L1641,1331 L1641,1328 L1642,1328 L1642,1324 L1643,1324 L1643,1321 L1644,1321 L1644,1318 L1645,1318 L1645,1315 L1646,1315 L1646,1312 L1647,1312 L1647,1308 L1648,1308 L1648,1306 L1649,1306 L1649,1301 L1650,1301 L1650,1299 L1651,1299 L1651,1294 L1652,1294 L1652,1290 L1653,1290 L1653,1286 L1654,1286 L1654,1284 L1655,1284 L1655,1280 L1656,1280 L1656,1276 L1657,1276 L1657,1272 L1658,1272 L1658,1266 L1659,1266 L1659,1263 L1660,1263 L1660,1257 L1661,1257 L1661,1254 L1662,1254 L1662,1248 L1663,1248 L1663,1243 L1664,1243 L1664,1240 L1665,1240 L1665,1235 L1666,1235 L1666,1228 L1667,1228 L1667,1224 L1668,1224 L1668,1219 L1669,1219 L1669,1213 L1670,1213 L1670,1207 L1671,1207 L1671,1201 L1672,1201 L1672,1195 L1673,1195 L1673,1187 L1674,1187 L1674,1184 L1675,1184 L1675,1175 L1676,1175 L1676,1170 L1677,1170 L1677,1160 L1678,1160 L1678,1152 L1679,1152 L1679,1146 L1680,1146 L1680,1135 L1681,1135 L1681,1129 L1682,1129 L1682,1118 L1683,1118 L1683,1107 L1684,1107 L1684,1096 L1685,1096 L1685,1081 L1686,1081 L1686,1071 L1687,1071 L1687,1056 L1688,1056 L1688,1040 L1689,1040 L1689,1022 L1690,1022 L1690,1007 L1691,1007 L1691,982 L1692,982 L1692,953 L1693,953 L1693,928 L1694,928 L1694,889 L1695,889 L1695,819 L1696,819 L1696,729 L1697,729 L1697,591 L1698,591 L1698,252 L1697,252 L1697,93 L1696,93 L1696,55 L1695,55 L1695,3 Z " fill="#574601" transform="translate(3,0)"/>
</svg>
